/* XPM */
static char *d171e10978e84b4acff986ec949e22aefsxBRcAUaq6avI9Z[] = {
/* columns rows colors chars-per-pixel */
"32 32 29 1 ",
"  c None",
". c #9C5A3C",
"X c #FBBF1B",
"o c #F6BA2F",
"O c #F4BA31",
"+ c #FFC00D",
"@ c #FFC10D",
"# c #FFC20C",
"$ c #FFC010",
"% c #EDB158",
"& c #EBB05F",
"* c #ECB05C",
"= c #F0B255",
"- c #E9AE67",
"; c #E8AD6C",
": c #E5AA77",
"> c #E3AA78",
", c #E5AA78",
"< c #E5AA7A",
"1 c #E8A878",
"2 c #92558E",
"3 c #95588E",
"4 c #844692",
"5 c #8B4D90",
"6 c #A1648B",
"7 c #A66989",
"8 c #709AD1",
"9 c #B5A5D5",
"0 c #99D9EA",
/* pixels */
"                                ",
"                                ",
"               $@               ",
"             @ $ $              ",
"             #=-oO              ",
"           <<;;X*<<1            ",
"           <<<<&%<<<            ",
"           <<<<<:<<<<           ",
"          <<...<...<<           ",
"          <<<<<<<<<<<           ",
"          <<<<<32<<<<           ",
"          ><<<5994<<<           ",
"            <<<76<<             ",
"           88<<<<<888           ",
"          8888888888000         ",
"        8888888000000000        ",
"        88000000888888888       ",
"       8000008888888888888      ",
"       0008888888888888888      ",
"       0888888888888888888      ",
"       8888888888888888888      ",
"       88888888880000000088     ",
"       88888880000000088888     ",
"       8888880000000888888      ",
"        888800000088888888      ",
"         8800000088888888       ",
"            00008888888         ",
"              00888888          ",
"                                ",
"                                ",
"                                ",
"                                "
};
