/* XPM */
static char *_a875ffaac2d4291e2731cf9255f775dAITg60i4MTk2hk4x[] = {
/* columns rows colors chars-per-pixel */
"50 50 201 2 ",
"   c None",
".  c #581710",
"X  c #581810",
"o  c #581811",
"O  c #591811",
"+  c #591912",
"@  c #591913",
"#  c #5A1812",
"$  c #5A1912",
"%  c #5A1A14",
"&  c #5B1B15",
"*  c #5B1A16",
"=  c #5A1B16",
"-  c #5B1B17",
";  c #5B1C17",
":  c #5C1C16",
">  c #5B1C18",
",  c #5C1D18",
"<  c #5E1F1B",
"1  c #611C14",
"2  c #631C15",
"3  c #631D15",
"4  c #6A1F18",
"5  c #60221C",
"6  c #60231D",
"7  c #62241D",
"8  c #6C2018",
"9  c #6E2118",
"0  c #7D271D",
"q  c #672A22",
"w  c #6B3127",
"e  c #733A2D",
"r  c #6D3F36",
"t  c #6F4239",
"y  c #72443B",
"u  c #73443B",
"i  c #73453C",
"p  c #74453C",
"a  c #74463C",
"s  c #74463D",
"d  c #75463E",
"f  c #75473E",
"g  c #75473F",
"h  c #76473F",
"j  c #75483F",
"k  c #76483F",
"l  c #764840",
"z  c #764940",
"x  c #764B41",
"c  c #774B41",
"v  c #774C42",
"b  c #784C42",
"n  c #784D43",
"m  c #794D43",
"M  c #784E44",
"N  c #795046",
"B  c #7A5046",
"V  c #7B5146",
"C  c #7B5549",
"Z  c #7C5449",
"A  c #7D554A",
"S  c #7D574B",
"D  c #922F25",
"F  c #933025",
"G  c #9B3328",
"H  c #9E3329",
"J  c #A83727",
"K  c #A0332A",
"L  c #A2332A",
"P  c #A2342B",
"I  c #A4352B",
"U  c #A5352B",
"Y  c #A6352B",
"T  c #A7352B",
"R  c #A6352C",
"E  c #A8352C",
"W  c #A9352C",
"Q  c #AA352C",
"!  c #A9362C",
"~  c #AA362C",
"^  c #AB362C",
"/  c #AB372C",
"(  c #AB362D",
")  c #AD3928",
"_  c #B43B2A",
"`  c #B63C2B",
"'  c #B73C2B",
"]  c #B73D2B",
"[  c #BA402D",
"{  c #815C51",
"}  c #815D51",
"|  c #815F53",
" . c #845F54",
".. c #856156",
"X. c #866257",
"o. c #846458",
"O. c #87675B",
"+. c #89675C",
"@. c #8A685D",
"#. c #8B6E61",
"$. c #8F6F63",
"%. c #917265",
"&. c #927467",
"*. c #927869",
"=. c #97796B",
"-. c #987A6C",
";. c #9A7E70",
":. c #988272",
">. c #998373",
",. c #A58B7B",
"<. c #A49380",
"1. c #AD9484",
"2. c #A89884",
"3. c #AC9B86",
"4. c #B0A38E",
"5. c #B1A38E",
"6. c #B2A38E",
"7. c #B3A38E",
"8. c #B2A38F",
"9. c #B3A38F",
"0. c #B3A48E",
"q. c #B3A48F",
"w. c #B3A58F",
"e. c #B4A58F",
"r. c #B7A48F",
"t. c #B8A78F",
"y. c #B4A390",
"u. c #B3A490",
"i. c #B3A590",
"p. c #B5A490",
"a. c #B4A590",
"s. c #B5A491",
"d. c #B4A690",
"f. c #B5A691",
"g. c #B5A792",
"h. c #B4A693",
"j. c #B8A190",
"k. c #B8A790",
"l. c #BBA693",
"z. c #B5A992",
"x. c #B6A993",
"c. c #B7AA93",
"v. c #B7A994",
"b. c #B8A893",
"n. c #BEAB91",
"m. c #B9AB95",
"M. c #BCA995",
"N. c #BFAC97",
"B. c #BAAD98",
"V. c #BCAE98",
"C. c #BDB099",
"Z. c #BEB09B",
"A. c #BFB19C",
"S. c #C4B69F",
"D. c #C4B6A0",
"F. c #C5B7A0",
"G. c #C9B5A0",
"H. c #CAB8A3",
"J. c #CBBEA7",
"K. c #D0BEA8",
"L. c #D1C0AB",
"P. c #DDCDB6",
"I. c #DFCEB8",
"U. c #DFCFB8",
"Y. c #DFD3BA",
"T. c #E0D4BC",
"R. c #E3D4BC",
"E. c #E6D8C0",
"W. c #ECDEC6",
"Q. c #EEE1C8",
"!. c #EEE1C9",
"~. c #EFE1C9",
"^. c #F0E4CB",
"/. c #F1E5CC",
"(. c #F7E8CC",
"). c #F4E9D0",
"_. c #F6EBD2",
"`. c #F6ECD2",
"'. c #F7EDD6",
"]. c #F8ECD2",
"[. c #F8EDD5",
"{. c #F9EED5",
"}. c #F8EED6",
"|. c #F9EED6",
" X c #F9EED7",
".X c #F9EED8",
"XX c #F9EFD9",
"oX c #F8EEDA",
"OX c #F8EFDB",
"+X c #F9F0D8",
"@X c #F9F0D9",
"#X c #F9F1D9",
"$X c #FAF1D9",
"%X c #F9F0DB",
"&X c #F9F1DB",
"*X c #FAF0DA",
"=X c #FAF1DA",
"-X c #F9F2DA",
";X c #FAF2DA",
":X c #FAF2DB",
">X c #F9F1DC",
/* pixels */
"                                                                                                    ",
"                                                                                                    ",
"                                                                                                    ",
"                                                                                                    ",
"                                                                                                    ",
"                                                                                                    ",
"                                                                                                    ",
"                                                                                                    ",
"                                                                                                    ",
"                                                                                                    ",
"                                                                                                    ",
"                                                                  ^ ~ ~ ~ G X                       ",
"                              u +.:X:X:X:X:XA p                 ~ ~ I X X X .                       ",
"                        6.>.p ,.:X:X.X:Xb p k Q.:X:X          L ~ ~ .                               ",
"                      S.*.p :X:X:X:X:Xk p +X.X:X:X.Xp {       ~ ~ R                                 ",
"                    6.6.p .X:X:X:X:X&.p :X:X:X:X:Xk K.:X:X:XX ~ / 2 X X                             ",
"                  9.9.p G.XX:XXX.X:Xp :X:XXX:XXX{ +.$X:XXXM.. ~ / X   X X                           ",
"                9.9.h l :X:X$X:X:X{ p :X$X:X$X:Xp XX:X$X:X1 . ~ ^ 8 R.X P                           ",
"              s.6.6.p XX$X:X:X$X:Xp ^..X:XXX:Xm +.$X$XXX:XX . u.~ 8 X X ~ >X:X:X                    ",
"            c.6.6.b +.$X:XXXXX:X+Xp :X:X$X:XXXl XX$X:X9.6.G . >X~.~ ^ ^ P :X:X.X:X:X                ",
"          6.w.6.6.p :X:X:X$X:X$X{.p $X$X$X$X:Xl :X:Xw.6.e.I D :X:X$XI.I.$X:X$X:X:X:X$X              ",
"          6.6.6.6.p .X:XXX:XXX:XS.p $X.X$X:X$Xl :Xs.6.6.6.6.W 2 $X>X:XXX:XXX:XXX:X.X$X.X            ",
"        6.e.6.6.>.h :X:X:X$X:XXX=.b .X:X:XXX:Xm {.w.6.6.6.:Xr I R .X$X:XXX:X$X:X:X:X.X:X$X          ",
"        6.6.6.6.m V {.:XXX:X$X:X=.k :X:X$X:X$X&.3.h.6.N.:X:X.Xy 1 1 :XXX:X$X:X$X:X].:X:X$X          ",
"        w.6.6.6.x ..:X:X:X:X:X$Xl.b :X$X.X:X.X.X6.6.e.6.:X:X:X:XH.K.:XXX:X$X$X].X X e :X:X          ",
"      6.6.6.6.6.x { :X.X:X.X$X:X.Xp $X:X:X:X:X].6.6.6.:X:X.X:X{.:XXX:X:XXX:XXX. 0 ) X X :X>X        ",
"      6.6.6.6.s.A V $X$X:X$X$X$X:Xp $X$X:X:X$XS.y.6.w..X$X$X:X:X$X:X$X:X:XXX. XX>X~ W . :X.X        ",
"      h.6.6.6.6.2.l $X{.:X.X$X$X>Xp $X$X$X.X.Xt.6.6.h.:X:X$X$X.X:XXX:XXXS.. 2 .X.X^ ^ . :X:X        ",
"      h.9.6.6.6.6.p :X:X$X:X$X:X:Xp &.$X:X.X$Xt.6.6.% . . 3 >X>X$X:X$X:Xs.X / ~ ^ ^ / X :X.X        ",
"      w.9.6.6.6.9.p 1.:X:XXX:XXX:XW.p $X:X:X$Xk.6.u.% {..XX , >X$X$X:X$Xw.X / ^ / / _ , :X:X        ",
"      s.9.6.6.6.9.9.h XXXX:X$X:X$X:Xp /.:X{.:X:XB.6.X :X(.[ X < $X$X:X:Xw.X 4 R ^ ~ X 6 :X.XC.      ",
"      6.6.6.6.6.9.9.h ;.:X$X:XXX:X.Xj.l :X:X.X:Xs.6.6 X ' ' _ % 6 :X.X:Xw.b.. D ~ , , .X:X6.6.      ",
"      6.6.6.6.6.6.6.6.p :X:X$X:X:X$X:Xl $..X.X:Xs.6.6.X X ] ] ] X :X+X$X.X6.% X X > {.:XJ.6.6.k.    ",
"      6.6.6.6.6.6.6.6.#.p $X:X$X$X$X$X:Xp E.:X:X:X6.6.9.w X _ W X :X$X$X{.S.h.% q :X:X:X6.6.6.6.    ",
"      6.6.6.6.6.6.6.6.6.b l $X:X{.$X.X:X:Xl P..X6.6.6.6.6.9.* 5 $X:X$X$X:X:XS.s.Y..X:X9.6.6.6.6.    ",
"        w.6.6.6.D.'.6.6.6.p A $X:X:X:X:X:X$Xm +.s.m.6.6.6.6.6.6.y.$X:X$X:X:X:X.X:X:X6.6.6.6.6.6.    ",
"        s.h.6.6.$X$X.X6.6.6.p v :X:X:X:X{.:X:X6.6.:X{.9.6.6.6.6.6.6.6./.:X:X:X:XT.    6.6.6.6.6.    ",
"          6.6..X$X$X$X:X6.6.u.N p :X:X.X:X:X:X6.{.:X:X:X:Xs.6.6.9.6.e.6.6.6.e.            6.6.6.    ",
"          6.w.:X:X$X:X:X:XB.s.6.<.p A :X:X:Xs.w.:X:X:X:X:X{.:X:X6.                          6.6.    ",
"            :X:X$X:X.X:X:X:Xv.6.6.w.m p  ..X6.'.:X.X:X{.:X:X:X                              6.6.    ",
"            :X.X:XXX$X:X$X6.6.6.6.6.6.w.o.{ 6.).{.:X:X:X:X                                    6.    ",
"            :X:X$X:X$X$Xy.y.6.h.e.6.6.s.w.w.6.{.:X.X:X                                              ",
"          :X:X:X:X:XXX                      6.:X:X:X                                                ",
"          :X.X:XXX                          6.:X:X.X                                                ",
"          :X:X:X                            6.:X:X                                                  ",
"          :X:X                              6.:X.X                                                  ",
"          :X:X                              6.).                                                    ",
"          :X                                e.                                                      ",
"                                                                                                    ",
"                                                                                                    "
};
