/* XPM */
static char *result[] = {
/* columns rows colors chars-per-pixel */
"64 64 6 1 ",
"  c #464646",
". c #990030",
"X c #FFC20E",
"o c #00B7EF",
"O c #99D9EA",
"+ c None",
/* pixels */
"++++++++++++++++++++++++++++++++++++++++++++++++++++++++++++++++",
"++++++++++++++++++++++++++++++++++++++++++++++++++++++++++++++++",
"++++++++++++++++++++++++++++++++++++++++++++++++++++++++++++++++",
"++++++++++++++++++++++++++++++++++++++++++++++++++++++++++++++++",
"++++++++++++++++++++++++++++++++++++++++++++++++++++++++++++++++",
"++++++++++++++++++++++++++++++++++++++++++++++++++++++++++++++++",
"++++++++++++++++++++++++++++++++++++++++++++++++++++++++++++++++",
"++++++++++++++++++++++++++++++++++++++++++++++++++++++++++++++++",
"++++++++++++++++++++++++++++++++++++++++++++++++++++++++++++++++",
"++++++++++++++++++++++++++++++++++++++++++++++++++++++++++++++++",
"++++++++++++++++++++++++++++++++++++++++++++++++++++++++++++++++",
"++++++++++++++++++++++++++++++++++++++++++++++++++++++++++++++++",
"++++++++++++++++++++++++++++++++++++++++++++++++++++++++++++++++",
"++++++++++++++++++++++++++++++++++++++++++++++++++++++++++++++++",
"++++++++++++++++++++++++++++++++++++++++++++++++++++++++++++++++",
"++++++++++++++++++++++++++++++++++++++++++++++++++++++++++++++++",
"+++++++++++++++++++++++++++++.+++.++++++++++++++++++++++++++++++",
"+++++++++++++++++++++++++++++..+..++++++++++++++++++++++++++++++",
"+++++++++++++++++++++++++++++..+..+.++++++++++++++++++++++++++++",
"+++++++++++++++++++++++++++++........+++++++++++++++++++++++++++",
"+++++++++++++++++XXXXXXXXXXXX..XXXXXXXXXXXXXXX++++++++++++++++++",
"+++++++++++++++++XXXXXXXXXXXXX.XXXXXXXXXXXXXXX++++++++++++++++++",
"+++++++++++++++++XXXXXXXXXXXXXXXXXXXXXXXXXXXXX++++++++++++++++++",
"+++++++++++++++++XXXXXXXXXXXXXXXXXXXXXXXXXXXXX++++++++++++++++++",
"+++++++++++++++++XXXXXXXXXXXXXXXXXXXXXXXXXXXXX++++++++++++++++++",
"++++++++++++++  +XXXXXXXXXXXXXXXXXXXXXXXXXXXXX++++++++++++++++++",
"++++++++++++++X XXXXXXXXXXXXXXXXXXXXXXXXXXXXXXXXX+++++++++++++++",
"++++++++++++++XXXXXXXXXXXXXXXXXXXXXXXXXXXXXXXXXXX+++++++++++++++",
"++++++++++++++XXXXXXXXXXXXXXXXXXXXXXXXXXXXXXXXXXX+++++++++++++++",
"++++++++++++++XXXXX         XXXX           XXXXXX+++++++++++++++",
"++++++++++++++XXXXXXXXXXXXXXXXXXXXXXXXXXXXXXXXXXX+++++++++++++++",
"++++++++++++++XXXXoOXXXXXXXXXXXXXXXXXXXXXXOoXXXXX+++++++++++++++",
"++++++++++++++XXXXoOXXXXXXXXXXXXXXXXXXXXXXOoXXXXX+++++++++++++++",
"++++++++++++++XXXXXXXXXXXXXXXXXXXXXXXXXXXXXoXXXXX+++++++++++++++",
"++++++++++++++XXXXXXXXXXXXXXXXXXXXXXXXXXXXXXXXX X+++++++++++++++",
"++++++++++++++X XXXXXXXXXXXXXXXXXXXXXXXXXXXXXXX X+++++++++++++++",
"++++++++++++++X XXXoXXXXXXXXXXXXXXXXXXXXXXOXXXX X+++++++++++++++",
"+++++++++++++++ +XXoOXXXXXXXXXXXXXXXXXXXXXOXXX+ ++++++++++++++++",
"+++++++++++++++ +XXoOXXXXXXXXXXXXXXXXXXXXXOXXX  ++++++++++++++++",
"+++++++++++++++  XXooXXXXXXXXXXXXXXXXXXXXXoXXX  ++++++++++++++++",
"+++++++++++++++  XXXXXXXXXXXXXXXXXXXXXXXXXXXXX++++++++++++++++++",
"+++++++++++++++++XXXXXXXXXXXXXXXXXXXXXXXXXXXXX++++++++++++++++++",
"+++++++++++++++++XXXXXXXXXXXXXXXXXXXXXXXXXXXXX++++++++++++++++++",
"+++++++++++++++++XXXXXXXXXXXXXXXXXXXXXXXXXXXXX++++++++++++++++++",
"++++++++++++++++++++++++++++++++++++++++++++++++++++++++++++++++",
"++++++++++++++++++++++++++++++++++++++++++++++++++++++++++++++++",
"++++++++++++++++++++++++++++++++++++++++++++++++++++++++++++++++",
"++++++++++++++++++++++++++++++++++++++++++++++++++++++++++++++++",
"++++++++++++++++++++++++++++++++++++++++++++++++++++++++++++++++",
"++++++++++++++++++++++++++++++++++++++++++++++++++++++++++++++++",
"++++++++++++++++++++++++++++++++++++++++++++++++++++++++++++++++",
"++++++++++++++++++++++++++++++++++++++++++++++++++++++++++++++++",
"++++++++++++++++++++++++++++++++++++++++++++++++++++++++++++++++",
"++++++++++++++++++++++++++++++++++++++++++++++++++++++++++++++++",
"++++++++++++++++++++++++++++++++++++++++++++++++++++++++++++++++",
"++++++++++++++++++++++++++++++++++++++++++++++++++++++++++++++++",
"++++++++++++++++++++++++++++++++++++++++++++++++++++++++++++++++",
"++++++++++++++++++++++++++++++++++++++++++++++++++++++++++++++++",
"++++++++++++++++++++++++++++++++++++++++++++++++++++++++++++++++",
"++++++++++++++++++++++++++++++++++++++++++++++++++++++++++++++++",
"++++++++++++++++++++++++++++++++++++++++++++++++++++++++++++++++",
"++++++++++++++++++++++++++++++++++++++++++++++++++++++++++++++++",
"++++++++++++++++++++++++++++++++++++++++++++++++++++++++++++++++",
"++++++++++++++++++++++++++++++++++++++++++++++++++++++++++++++++"
};
