/* XPM */
static char *c76628129baa4d4ccb8e8e89930fea8f66FAjJHqqs6etRoC[] = {
/* columns rows colors chars-per-pixel */
"50 50 168 2 ",
"   c None",
".  c #331925",
"X  c #321A25",
"o  c #331A25",
"O  c #331926",
"+  c #321A26",
"@  c #331A26",
"#  c #331B26",
"$  c #331A27",
"%  c #341826",
"&  c #341827",
"*  c #351827",
"=  c #361827",
"-  c #341A26",
";  c #351A26",
":  c #341B26",
">  c #351B26",
",  c #341A27",
"<  c #351A27",
"1  c #341B27",
"2  c #351B27",
"3  c #361A26",
"4  c #361B26",
"5  c #371B26",
"6  c #361B27",
"7  c #351C27",
"8  c #371D27",
"9  c #371E27",
"0  c #381A26",
"q  c #381B27",
"w  c #3A1A27",
"e  c #3B1B27",
"r  c #3C1B27",
"t  c #36172A",
"y  c #37172A",
"u  c #38172B",
"i  c #38172C",
"p  c #39172F",
"a  c #3B172F",
"s  c #3F172F",
"d  c #341828",
"f  c #351828",
"g  c #361829",
"h  c #371929",
"j  c #341A28",
"k  c #351A28",
"l  c #351B28",
"z  c #361A28",
"x  c #36182A",
"c  c #37182A",
"v  c #3A1B28",
"b  c #38192A",
"n  c #3D1B28",
"m  c #38182C",
"M  c #39182C",
"N  c #39182D",
"B  c #3A1730",
"V  c #3B1731",
"C  c #3B1632",
"Z  c #3D1635",
"A  c #3E1636",
"S  c #3F1637",
"D  c #401B28",
"F  c #461C28",
"G  c #401538",
"H  c #411439",
"J  c #401539",
"K  c #41143A",
"L  c #42143A",
"P  c #42143B",
"I  c #43143B",
"U  c #45153A",
"Y  c #44143B",
"T  c #44153B",
"R  c #45153B",
"E  c #46153A",
"W  c #47153A",
"Q  c #4B1639",
"!  c #48153A",
"~  c #48163A",
"^  c #4A163A",
"/  c #4C1639",
"(  c #4D1639",
")  c #4E1639",
"_  c #4F1739",
"`  c #531736",
"'  c #551737",
"]  c #5B1737",
"[  c #5D1737",
"{  c #5E1936",
"}  c #501738",
"|  c #521738",
" . c #601A36",
".. c #641B35",
"X. c #6B1E33",
"o. c #6D1F31",
"O. c #6D1F32",
"+. c #691D34",
"@. c #6A1E34",
"#. c #6B222C",
"$. c #6E2030",
"%. c #6E2031",
"&. c #6D2032",
"*. c #6D2033",
"=. c #6E2032",
"-. c #6F2032",
";. c #702031",
":. c #712131",
">. c #722131",
",. c #732231",
"<. c #702032",
"1. c #702132",
"2. c #752231",
"3. c #762231",
"4. c #7A2430",
"5. c #CE462F",
"6. c #CD482E",
"7. c #D44B2F",
"8. c #D54B30",
"9. c #D54B31",
"0. c #D44C30",
"q. c #D54D30",
"w. c #D44E30",
"e. c #D54E30",
"r. c #D54F30",
"t. c #D55030",
"y. c #D55031",
"u. c #D65431",
"i. c #D65832",
"p. c #D75932",
"a. c #D96A36",
"s. c #8F8172",
"d. c #DD8B40",
"f. c #E5AC51",
"g. c #A09181",
"h. c #A39583",
"j. c #AD9F8A",
"k. c #AFA08B",
"l. c #AFA08C",
"z. c #B0A08C",
"x. c #B0A18D",
"c. c #B1A28D",
"v. c #B2A38E",
"b. c #B3A38E",
"n. c #B5A794",
"m. c #B9AC98",
"M. c #BAAC98",
"N. c #BAAD9A",
"B. c #C2B7A7",
"V. c #C6BBAC",
"C. c #E5DFD8",
"Z. c #E6E1D9",
"A. c #E7E1DA",
"S. c #E8E3DC",
"D. c #E9E4DD",
"F. c #EAE5DF",
"G. c #EBE6DF",
"H. c #EAE6E0",
"J. c #EBE7E0",
"K. c #EBE7E1",
"L. c #ECE9E1",
"P. c #ECE8E2",
"I. c #ECE9E2",
"U. c #EDE9E2",
"Y. c #EDEAE3",
"T. c #EEEAE3",
"R. c #EEEBE3",
"E. c #EEEBE4",
/* pixels */
"                                                                                                    ",
"                                                                                                    ",
"                                                      d @ @ $ $ A C d                               ",
"                                                @ % > O.>./ P P P P P P C N                         ",
"                                  @ @ @     P > >.>.>./ P P ! >.;.( Y P I @ t                       ",
"                              @ @ @ @ @ @ 7 T P >.3.! P >.>...P P P P P I I @ t                     ",
"                            @ @ > @ @ @ @ p.7 P / >.>.>.>.R P t S P P P S P Y > a                   ",
"                          > > > > > > > @ d.q.P P >.>.>.>.P $ @ @ @ I P P P P Q @                   ",
"                          > p.7 > > 7 7 f.f.7.7 P >.>.>.a @ @ @ @ @ @ u I I P P >                   ",
"                          > u.7 @ @ > f.f.f.7.# P >.>.@ @ @ > @ @ @ @ @ a I P P @                   ",
"                          > y.f.f.f.f.f.f.a.7.G P +.d @ @ @ @ @ % o @ @ @ C I P @                   ",
"                          7 q.f.f.f.f.f.f.y.7.P P v > @ h.l.z.z.k.o @ @ @ @ S P @                   ",
"                          > q.q.f.f.f.f.y.7.Z P d > s.n.z.U.E.E.U.b.l.@ @ @ P P @                   ",
"                          > @ q.7.y.y.7.6.7 T P > z.z.z.D.E.E.E.U.E.b.7 @ @ @ P @                   ",
"                        @ @ > > o 7 7 7 7 P P d g.z.z.Z.Z.U.E.E.U.U.U.H.@ @ @ P @                   ",
"                    @ @ 3.@ >.P v @ 7 # P T V # b.b.> > > E.E.E.G.7 7 U.@ @ @ P @                   ",
"                > @ 9.q.3.$ >.>.T Y Y T P R @ k.z.n.7 @ @ > U.U.> > @ U.@ @ > I @                   ",
"              @ @ 3.>.>.@ @ >.>.>.>.>.;.>.>.d b.b.z.7 @ @ @ E.E.> @ @ U.@ @ t I @                   ",
"              @ @ @ @ > d # >.>.>.>.>.>.>.>.> b.b.b.# # @ @ R.E.> @ > U.@ @ P T @                   ",
"                        @ > =.>.>.>.>.>.>.>.@ z.b.l.7 7 @ # U.E.> > @ E.@ @ T ! @                   ",
"                        # q.> >.>.>.>.>.>.>.@ z.b.b.n.7 # 7 U.E.7 > N.U.> > T P @                   ",
"                      @ q.q.@ O.>.>.>.>.>.>.> @ b.b.z.b.b.N.E.U.N.z.B.A.@ d P P d                   ",
"                    > 9.5.>.> @ >.>.>.>.>.>.>.> l.b.b.V.E.E.E.E.H.E.E.D.@ P P @ d                   ",
"                    @ 3.F @ > @ O.>.>.>.>.>.>.` # l.b.b.U.E.E.E.E.E.D.$ u P N 7                     ",
"                    @ @ >   > q.@ >.>.>.>.>.>.>.J # 7 b.k.K.E.E.H.% d t ! q @ d                     ",
"                            > #.w > O.>.>.>.>.>.,.P T d $ $ $ @ > >.>.>.> >                         ",
"                            @ @ > @ > u >.>.>.>.>.>._ _ ! [ >.>.>.>./ > @                           ",
"                                  @ 4.> d >.>.>.>.>.>.>.>.>.>.>.>.T d > @                           ",
"                                  @ D @ d >.>.>.+.P T { >.>._ T v $ > V d d                         ",
"                @ @ @ @ @ @ @     @ @ > >.>.>.>.>.O.T P P P P 7 > > P P R > @                       ",
"                @ > >.>.} P @       @ O.>.>.X.>.>.>.>.>.>.! T ! +.>.+.P R P @ @                     ",
"                  @ >.>.P P @       @ >.>.>.P > >.>.>.>.>.>.>.>.>.>.R ! P P $ >                     ",
"                @ v >.] T P >     @ >.>.>.>.P @ >.>.>.>.>.>.>.>.>.>.P P S P $ > $                   ",
"              @ >.>.>.I I P @     d >.>.>.{ P > >.>.>.>.>.>.>.>.>.>.I T I I d @ > @                 ",
"            @ ;.>.>.P > @ @ @   $ >.>.>.>.P P @ >.>.>.>.>.>.>.>.>.I I I I I > @ @ @                 ",
"          @ r >.=.P > >   @ @   $ >.>.>...P ! d >.>.>.>.>.>.>.>.X.I I I I I & 7 > @                 ",
"        > @ >.>.P @             d >.>.>.P P > >.>.>.>.>.>.>.>.>.I S P P P P > @ > @                 ",
"        @ >.>./ > @             $ >.>.P P P @ >.>.>.>.>.>.>.>.T P P Y P P P 7 @ > @                 ",
"        @ >.>.>.v               @ >.P P P @ >.>.>.>.>.>.>.>.T T P P P S P $ d > > @                 ",
"        @ n >.>.R @ w             > ' P d @ O.>.>.>.>.>.=.P T P P P $ P P $ > > @ @                 ",
"          > >.>.>.P G > @ @ @ @ @ @ $ @ @ @ >.O.R P P R P P P P N 7 P P P # d $ >                   ",
"            > >.>.>.X.I I I I I P A d 7 7 @ >.>.>.T Y d @ @ @ > > >.>.P @                           ",
"              @ > O.P I P N @ @ @ > 7 d d @ >.>.>.! P d       @ >.>.>.P >                           ",
"                  n > > > @ > @ > @ > > > > >.>.>.Y P d       $ >.>.P P @                           ",
"                                          $ >.>.>.P P d       $ >.T Y Y >                           ",
"                                          $ >.>.P Y T d       > > T Y > d                           ",
"                                          $ $ >.T d > @         % > % @                             ",
"                                            d @ > d                                                 ",
"                                                                                                    ",
"                                                                                                    "
};
