/* XPM */
static char *aaf3875bfbd34e2af0a99680083a3166eY7DzOjqqTenFBe3[] = {
/* columns rows colors chars-per-pixel */
"50 50 89 1 ",
"  c None",
". c #3E1C1E",
"X c #341D27",
"o c #3C1C22",
"O c #331E29",
"+ c #391F29",
"@ c #372127",
"# c #382227",
"$ c #36202A",
"% c #382129",
"& c #401A1E",
"* c #401B20",
"= c #461A3E",
"- c #4A1B3B",
"; c #561D36",
": c #5B1C32",
"> c #531C38",
", c #641E2D",
"< c #611E30",
"1 c #41272C",
"2 c #472A2D",
"3 c #6E272E",
"4 c #74262D",
"5 c #692731",
"6 c #692831",
"7 c #431A40",
"8 c #8C2926",
"9 c #842728",
"0 c #932B24",
"q c #9D2F22",
"w c #9F3023",
"e c #813934",
"r c #A03023",
"t c #AB3326",
"y c #B23527",
"u c #B53528",
"i c #BC352B",
"p c #B13F2A",
"a c #BA3829",
"s c #C3372C",
"d c #C53C2C",
"f c #CB3C2D",
"g c #894B2A",
"h c #864B3B",
"j c #AC432B",
"k c #B2452B",
"l c #B34A2E",
"z c #B6552F",
"x c #B64E30",
"c c #AB573B",
"v c #B45132",
"b c #B95432",
"n c #B95D33",
"m c #BF643C",
"M c #C5432C",
"N c #D24832",
"B c #D75B36",
"V c #D75D38",
"C c #C06639",
"Z c #CB633A",
"A c #C2683C",
"S c #CD6B3D",
"D c #B96743",
"F c #BD6943",
"G c #C36C43",
"H c #C67244",
"J c #CC7545",
"K c #CB7947",
"L c #C67749",
"P c #CA7A4A",
"I c #D07243",
"U c #D17846",
"Y c #D27D4A",
"T c #CE824D",
"R c #D4844E",
"E c #CB8253",
"W c #D48651",
"Q c #D68C54",
"! c #D49155",
"~ c #D99256",
"^ c #DB9659",
"/ c #DB9A5B",
"( c #DEA15F",
") c #DEA260",
"_ c #E1A762",
"` c #E2AB65",
"' c #E2AF69",
"] c #E4B067",
"[ c #E5B369",
/* pixels */
"                                                  ",
"                                                  ",
"                                                  ",
"         OOOOOOOOOOOOOOOOOOOOOOOOOOOOOOOO         ",
"         OrrwqwwrrrrrrrwqrrrrrrrrrrqrrrqO         ",
"         OrtrtrwrrrwqrrwtrrrrwrwrrrrrrrqO         ",
"         Oqrt0ytaarrrtqqqrrrrqrqqqqqrrrrO         ",
"         OrtrXOOOOOOOOOOOOOOOOOOOOXXXCtaO         ",
"         OrtsO,,,,,,:,,,>=:,<,,:7;,,OWyyO         ",
"         OyssO,,,,,,;,,,-7=:::,>77,,$KyyO         ",
"         OdsZO,,,,,,>-,,:77;:<,;77,,OmyyO         ",
"         OMsQO,,,,,,-=,,:=7>:;::7=<,OHaMO         ",
"         OdMQX,,,,,->7,,-77-:==:77,,OQddO         ",
"         OdMQO,,,,,7;7:,777-;==:7=:,OQMdO         ",
"         OdSQO<>777777--7-;;;77-==:,OQMZO         ",
"         OdUQX=777777777777777777=-<$QZSO         ",
"         OQWQO777777777777777777777-OQYRO         ",
"         OQQQO7777777777777777777777OQWWO         ",
"         OQQP$7777777777777777777777OQRQO         ",
"         OW!EO7777777777777777777777OQYQO         ",
"         OIYEO7777777777777777777777+QZRO         ",
"         OUYQO=777777777777777777777OQZWO         ",
"         OYYQO77777777777777777777=7O/SRO         ",
"         OYYQO7777777777777777777777O`RWO         ",
"         ORRQ$7777777777777777777777O[RRO         ",
"         ORRQOOOOOOOOOOOOOOOOOOOOOOOO[WWO         ",
"         OR`[[[[[[_^//~^]][][)'[WW[][['PO         ",
"         OVVNdss6VVVssss6VVVfssss6BBdsssO         ",
"         $ssssss6sssssss6ssisissi6ssssssO         ",
"         O656446666666666666666666666666O         ",
"         $OOOOOOOOOOOOOOOOOOOO$$OOOOOOOOO         ",
"         &*O[[WGO^)GGGGj6+)[FO[DO[LGGGO*          ",
"       ..o&O[Gr6O%%$%%++O+[L5OG3X[mrr3X&..        ",
"      ooo&.O[rr6+!HGGFlr6OPr6OG4O[rrr3O&&&.       ",
"    ooooo*oO_rr6Oh6666666OG56OG6OGrwr5O..&..      ",
"    oooooooOQrr5OOOOOOOOOOOOOOOX%Grrr6Oo..*&&     ",
"   ooooooooOWrr5OQYGO[[GGGGGGGGG1Grrr6O..&.&&     ",
"   +ooo+OOO$Grr5OGG6OLGrrrrqrww52Grrr6OOOOo.&     ",
"    ooooODD$Hrr5OG66OG66666566651Grqr6Ox6$.&&     ",
"    oo+o$FtXGrr6OOOOOOOOOOOOOOOOOGrrr5Ob6O&&&     ",
"    %ooo$Ft$H666Orrrr0886[rrrrrrOG6555Ok6O.&      ",
"     ooo$mlOOXOOOrrr88996`rwwrwwOOOOOO+b6O&*      ",
"     ooo$bJlArwwrrrq09886/rrrrqrrrqrkpbb6Oo       ",
"      ooOTRRGv880880466hhPkrtjbnjrkjce666O*       ",
"      ooO~/[[[(///^^^/][[[[Q~/`[[])/^^^^/O        ",
"      &*Osssddssssssdiyrwwwrwrtqttwwqrrrw$        ",
"       &OssssssitrrqttyuirrrrrrrrwwwrrqqrO        ",
"        OOOOOOOOOOOOOOOOOOO$OOOOOOOOOOOOOO        ",
"                                                  ",
"                                                  "
};
