/* XPM */
static char *d689b1dc5de0444983f14d2db8ac6636AJ2ADT8swQ2vOb95[] = {
/* columns rows colors chars-per-pixel */
"32 32 3 1 ",
"  c #9C5A3C",
". c #E5AA7A",
"X c #F5E49C",
/* pixels */
"                             ...",
"                           . ...",
"          . .                .. ",
"  .      . ...               .. ",
"    .   .. .              . ....",
" ..  ..  ...            .  . . .",
"........ ....            .... ..",
".......... ...    ..   . ... ...",
"............ .. .     . ... .. .",
".... ....... ... . . .   ...... ",
" ......... .. . .  . ...... ... ",
". ...   ....     . .   .......  ",
"..       .....    .    ..... .  ",
"...      ....... ... ....... .. ",
".        . ..... .......... ..  ",
".          ................ .. .",
".         ... . .............   ",
". .       .. .. .............   ",
"  . ..    .. ...............    ",
".....  .   .. ................  ",
".. .       .  ................ .",
".. .. . .. .. ............. ....",
".   . .    ........... ..... .  ",
"  ......  . ................. . ",
"  ... .... .. ............ .....",
" ..  ....  .......... ......  ..",
". ....... ... ............  .   ",
"  . ..... ...............  . .  ",
". .... . ..  .. .........       ",
"... .... . ..  .  ......   . X  ",
".. ...... ......   .. ..     .  ",
". ..  ..  .....                 "
};
