/* XPM */
static char *cab73c1dce0d4a9694c432d3c3c107dcZ3Qp7h9JPWloMGCt[] = {
/* columns rows colors chars-per-pixel */
"64 64 4 1 ",
"  c #9C5A3C",
". c #FFC20E",
"X c #E5AA7A",
"o c #FFF9BD",
/* pixels */
" XXXXXXXXXXXXXXXXXXXXXXXXXXXXXXX   XXXX  XXXXXXX XXX  X         ",
"   X XXXXXXXXX   XX XXXXXXX XXXXXX  X XXXX X   .XXXXX  XXX      ",
"  XXXXXXXXX.   XXX XX XXXX XXXXXXXXXXXXXX     X XXXXX XXXXX     ",
"  X   XXXXX XXX XX XXXX XX  XX XXXXXX XX X   XXX XXXXXX   X     ",
"  XX  XXXXXXXXXXXX XXX XXX  XX XXX XX XXX XXX  XXXX XXXXXX    X ",
"    X XXXXXXX XXXX X X  XXXX XXX XXXXX XXXXXX   XXXXX X XX   X  ",
" X  XXX XXX  X  XX  XXXXXXXXXXXXXXXXXX     XX XXX     X  XX   X ",
" X XXXXXXXXXXX   X XXX X   XX XX X    X   X X XXXX o   XX    XXX",
"X   XXX XX XX    XXXXXXXX    XXX XX   XX X XXXXXXXXXXXXXXXX XXXX",
" X X XX  XX XXX X XXXXX X XXX       XXXXXX XXX XXXXXXXXXX   X XX",
"X  XXXXXXXXX  XX XXXX  XX  XX  XXX XXXXXXXXXXXXX X XXoXXXX XXXXX",
" X X X  XX   XX  XXXXXXXXXXXX    XXX  XXXXXXXXXX   XXXX X XXXXXX",
"X X.   XXX X XX X  X XXXXXXX X    XX XXXX X XXXXXXXX XXXXXX  XXX",
" XXoXXXXXXX   XX  XXXX XXX X   X  XXXXXXX  XXXXX  X XXX  XX XXXX",
"Xo XXXXXXX XX X   XXX XX XX X    XXXXX.XXXXXXXXXX   X    XXXXXXX",
"ooXo XoX  X XX  XXXXXX XXXX      XX XX XXX  XXXXX X  XXXXXXXXX  ",
"XoXXXXXX  XX X XXX XX X XX XXXX  XX XXXXX XXXXXXXXXXXX XXXXXXXXX",
"XXXXoX         XXXXXXXXX XXX X XXXXXXXXXXXXXXXXX   XX   X X    X",
"X XXoXXXXX     XXX XXXXX XX XX XXXXX XXXXXXXXXXXXXXX  X  X    XX",
" XX XXX       XX X XXXXXXX X XXXXXXXXXXXXXXXXXX XX    XX     X X",
" XooXXXXXX  X X X    XXXX XXXXXXXXXXXXXXXXXXX .XXXX             ",
" XXX XX   XX  XX XX XX XX XXXX XXXXXXXX XX XX X .  X          XX",
" oXXX XXXX X    X X  XXXXXXXXXX XXXXXXXXXXX XX  X X      X     X",
" oX    X X X    X XX  XXX XXXXXXXXXXXXXXXX XX X  .           XXX",
"    XXXXXX  X  X XXX XXX.XXXXXX   XXXXXXX XXX  X      X    o X. ",
"   XX XXXXXX  X  X XXX XXX XXXXXXXXXXX XXXXXXX                  ",
" XoXX     X    XXX XXX .XXXXXXXXXXXXXXXXXX XXX    X   X  XX  X  ",
"XX X XXXX XX XX X   ooXX X X XXXXXXXXXXXXXXX         XX XXXX    ",
"    XX o   X   o XX XXX o XXXXXXXXXXXXXXXXXX XXX X XXXXXX.XX   o",
" X X     XXX  X     X o    XXXXXXXXXXXXXXXXXXXXXXXXXXXXXXXXXXo o",
"X XXXX  XX    X     X X X XXXXX XXXXXXXXXXXXXXXXXXXXXX XXXXXXX  ",
"XXX  X  X  X     XX  XXXX X XXXXXXXXXXXXXXXXXXXXXXXX XXXXXXXXXXX",
"X XXXX       X   XXX XXXX  XXXXXXXXXXXXXXXXXXXXXXXXX XXXXXXXXX X",
" XXXXXXX   X X    o X X   XXXX XXXXXXXXXXXXXXX XXXXXXXXXXX XXXXX",
"Xo  X XXXX XXXX XXX XXX XX   XXXXXXXXXXXXXXXXXXXXXXXXXXXXXXXXXXo",
"XXXXXX  XX X  . X X XXX XXXXX   XXXXXXXXXXXXXXXXXXXXXXXXXXXXXX X",
" X Xo   XXXXXXXXXXX   XXXXXXXXXXXXXXXXXXXXXXXXX XXXX X XXXXXXXXX",
"XX XXX  XXXXXXXXXXXXXXX XXXX  XXXXXXXXXXXXXXXXXXXXXXXXXXXXXXX XX",
"XXoXX XXXXXXXXXXXXXXXXXXXXXXXXXXXXXXXXXXXXXXXXXXXXXX XXXXXX oXXX",
"XX X XXXXX XXXXXX XXXXXXXXXXXXXX   XXXXXXXXXXXXXX oXXXXXX  XXXXX",
"XXXXXXXX XX XXXXXXXXXXXXXXXXX.XX.XXXXXXXXXXXXX XXXXX XXX X XXXXX",
"XXXXXXX XXXXXXXXXXXXX XXXXXXXXXXX XXXXX XXX XX XXXXXXXXXXX XXXXX",
"X X   XX XXXXXXXXXXXXXXXXXXXX XXXX X XX  XXXX XXXXXXX XXXXXXXXXX",
"XX X  XXX  XXXXXXXXXXXXXXXXXXXXXXX.XX  XXXXXXX XX  XXXXXXXXXXXX ",
"XXX X   XXXXXXXXXXXXXXXXXXXX XXXXXXXXXXXXXXXXXXXXXX X XXXXXXX X ",
"XXXX   XXXXXXXXXXXXXXXXXXXXXXX XXXXXXXXXXXXXXX XXXX XXXXXXXXXXXo",
"XX     XXX XXXXXXXXXXXXXXXX XXXXXXXXXXXXXX XXXXXXXXXXXXXXXX XX X",
"XX        XXXXXXXXXXXXXXXXXXXXX XXXXXXXXXXXXXXXXXXXXXXXXXXXXXXXX",
"X           XXXXXXXXXXXXXXXXXXXXX XXXXXXXXXXXXXXXXX.XXXXXXXX XXX",
" X      X  XXXXXXXXXXXXXXXXXXXXXXXXXXXXXXXXXXXXXXXXX...XXX XXXXX",
"X          XXXXXXXXXXXXXXXXXXXXXX XXXXXXXXXXXXXXXX. X X XXXX XXX",
"      X     XXXXXXXXX XXXXXXXXXXXXXXXXXXXXXXXXX.XX.XXX. XXXXXXXX",
"          o  XXXXXXXXXXXX XXXXXXXXXXXXXXXXXXXXXXX.X.XXX.XX.XXXXX",
" X            XXXXXXXXXXXXXXXXXXXXXXXXXX X..X.X.XXXX.XX....X . X",
"              X  XXXXXXX X XXXXXXXXXXXXXXXXXXXXX.XX.XXXXXXXXXXX ",
"              o XX X XXXX XXXXXXXX XXX X     XXXXXXXXXX.XXXXXX  ",
"                XXoX    oXXXXXXXXXXXXXXXXX  X  XX  XXXXXXXXXXX  ",
"           oo X   o   XXXXXXXXXXXXXXX XXXXX  X XXX XXXXXXXXXXX  ",
"              X  o X  XXX XXXXXXXXXXX XXXXX XXXXXXXXXXXXXX XXX  ",
"        X          XoXX  XXX XXXXXXXXXXXXXX  XX XXXXXXXXXXXXXXX ",
"      X     o    X  XXXX XXXXXXXXXXXXXX        XXXXXXXXXXXXXXXX ",
"        X       XXXXXXXXXXXXXXXXXXXXXXX XXX   XXXXXXXXXXX XXXX  ",
"       X        XXXXXXX XXXXXX XXXXXXX X XX XXXXXXXXXXXXX XXXX  ",
"        X    X   X X X  XXXXXXXXXXXXXX XXX X   XXXX XXXXXXXX    "
};
