/* XPM */
static char *_45ec9a521a249ddfb5759a93800d398UDhIuWe5QUvT7TJj[] = {
/* columns rows colors chars-per-pixel */
"50 50 67 1 ",
"  c #3E2520",
". c #441B17",
"X c #4B1B15",
"o c #441E1B",
"O c #4D1E1B",
"+ c #521E17",
"@ c #521F1B",
"# c #591F1B",
"$ c #45221D",
"% c #4C221D",
"& c #53221D",
"* c #59221B",
"= c #462522",
"- c #4C2523",
"; c #462825",
": c #4C2926",
"> c #4E2728",
", c #4D2A29",
"< c #532522",
"1 c #592623",
"2 c #532926",
"3 c #5B2A26",
"4 c #512729",
"5 c #532B2A",
"6 c #5C2D2A",
"7 c #55302D",
"8 c #5C322E",
"9 c #522E30",
"0 c #5C3331",
"q c #5D3933",
"w c #632725",
"e c #642A26",
"r c #692C26",
"t c #642C2B",
"y c #692D2B",
"u c #722F27",
"i c #712F29",
"p c #673226",
"a c #6B3227",
"s c #64312D",
"d c #6B332C",
"f c #65382D",
"g c #6C382E",
"h c #71312A",
"j c #71392E",
"k c #652F30",
"l c #643431",
"z c #6B3531",
"x c #643A34",
"c c #6C3B33",
"v c #653F3A",
"b c #6C3E39",
"n c #703631",
"m c #713C34",
"M c #703F39",
"N c #6C4037",
"B c #66413A",
"V c #6C423C",
"C c #744035",
"Z c #73433C",
"A c #73483F",
"S c #6B4641",
"D c #6D4844",
"F c #744641",
"G c #7A4740",
"H c #734942",
"J c #7C4B45",
/* pixels */
"-<+<#&@<O4-O<O%%%:::;;:-<%@1&&&&<O5X<&&&%&1%4&<<1@",
"<66ltktl64bSSFAN%:,;,,:4-bFFNFZFFb&sxscss268k6k6t6",
"&6tlttttkOFFxFZb%:,;,,::%FFZMFbMAG%ccgNccO3sttttt1",
"<lyztyttk<DMbFZA%:,,,:2,2SMbMFMFcZ&bgppgm@sdtkttt6",
"@ktywyykt@FMGZMZ::,,7,,2<bMFGZFZAC*ggjgjd@teetwyyt",
"#kyyyyykk<FFZmGM%:,:,,7:>SFFMMZMZC*pjajjg*setdwytt",
"#ktyyyyyk@GMMMJC%::;,,;2-bbMMMGFmZ*gjahhg*retywyyw",
"@kyyyyyyk@GMGGMM:7,,,,,:-FFGZMZZZC*dgjdjn#rrywyyyt",
"<kwyyytyt<bFZZCZ=,,,>;::-FZZZZZZZM*cdddgz@kyywyytt",
"<kkyyykkt#FbZZCZ-;9,,,42%VFZMZZMZZ&sgggnk#wwyyywtw",
"#kkywyytk<FbZZZZ%,,,,,44-VFZZMZZAZ&smcgdn1kktkkyyt",
"<kwkyyttk<bFZZCZ%;,,,,>4%FMZZZZZAV1gggggz#tkkwyyww",
"@kkyykykt@FbFMZZ-:,,,,,-%VZZCCZZAN&cafgml@wlytywkw",
"@kwkwywkk@FbFMZZ:,,,,,,>:ZZAZZZZZZ&cdgpgm#wyywtykw",
"#ktkyyyyt@FFMMMZ=,,,,,:-%AZZCZZZZZ&pCggdd1kwyyytkt",
"<kttykyw6@bbFMMM=>;;=-:-%VZAZCZZVA&XNpcd@@ztttttw6",
"%-0klk6s%%HDNAZV-,o;;%%DVVVVVVVVvH;O2%%%%%88tsttk6",
">--%%<O<:%VBVVNF=,==:5=%BBBBVBVBDo-5$%2%27888t6t63",
"==--<4<&$AVVHBH%-,,,-2-$;:%:%%%2$->-;2;$;%%%%<O1<@",
",,,<-4--2$:$-:.-;;>94;25;4-$:%::-5:>4$5,::::<4&163",
"=,,:=4-4::,:44<-::::2244;4::2::25=445-;5::%:%2&163",
"=qqq00%43::2=-=<422:6555%4>>2244o>9<554,7772%623t1",
"$qqqxx%8352244=63383856q-6550965>0007=vvqqBB%8sste",
"%vqqxx%8787860O663s3sss6%9649696%6630&bvBNBB&fssst",
"%VNxNb<666tl66&lsyatss6t@6228653@666s<bZbANN&sstye",
"&VZVAN&sstltt6<tddaddsdk<6325356<8t6eOAbFAVA+sddrr",
"%ACZAZ&sttwttt<zhhuhhdzd@3226111&tsts@GANZZZ&rayrr",
"&ZCBZc%szkyytt#zduhuiddsO3314465@tltl&MZZAZZ*ahyrr",
"&AVBZN&st6tkkt&zhuhiizyd&3143466<6t6k@MMZZZZ+yyyrr",
"&VVVVV&6tttttw&lhuuhiizz&<566464&kwk3#JbZbCJXyryrr",
"%VVVVV%2kktk61OliuihyzzlO<>4444-&k6l6<bFFZZZ&dydyr",
"%VDSBV%%OO-<<%%zzzizzdzl<--O>->--6llt<XSbVZ@1thyyr",
":%SBDo=;-=;;$:vsfbpsl8l=:-=$====0906-%%::%%%&ddpdt",
";;;=-:;;; ;$$;-%%2%24:4:==$=-;;;=-=;%:;$$:,%sxes31",
"-5-:o5$$;$;7:542%%%%%%-2-4>44444:544-2-%;;;:<&O&<-",
"%2-<O--2;,:::2-&2%%%%--222544444=423<2:2,$:2:33366",
"-2<<6166%87q8sxl%7278%568tk6666t&6661245>,,,554845",
"&86lsst6&AvbbbZv&qfflOll666k6twt&88sssll=999559595",
"%ssdtyyz&AZFZFAA%fcxxOtstttyyyyk<dsdssdt4444,,9499",
"&peadryz#MZFMFcZ&scdc&ttyyyyyyyy@dsdddll<4,,,,,544",
"+srdyiyy#ZZAbZZZ*gggc@tyyyyyytyy*dadhrnz@44;,,,,44",
"#ayiriyi#ZcZZAmZ&ggdn#yyyywyyyyy*aahdrnd&444,,,,,,",
"*rrduiyd#FZZbZZZ*gjdn#yyyyyyyyye&pjdhdgl@44>,,,>,,",
"*ayhryyy*MZAZAZZ*dghn#yyyyyyytyy&gzagrts<44:,>>,,,",
"*aryydys&NNBFZbH&fgdn#wyyytyyywt&slssdcc-,,,,,>,,,",
"*rrdyyys&NABvVVZ*agfz#yyyyyytyyt%%8gsls:-,,,>,>>,,",
"*yrdyap8%2BqqBv&%fcdz#tyyyyyyyyy1=%%O&<O-,,9,,>4,4",
"*arryasp&%%%:%%&%fglz&kywyyyyyyk=24-24:5;,,,,,>>4>",
"<1dyiid1%2,,555%fsgcs13syyywyyy1-4:2;:2:>>,,>,>45,",
"&1yyiys<-2,,,57%*pjc1X1tyyyyyyk1-,:,-:,,;,,,,,4>>;"
};
