/* XPM */
static char *d69cf110ecfe4fa6e81623d90433ab71r3z26Fx8Jchbc39x[] = {
/* columns rows colors chars-per-pixel */
"50 50 86 1 ",
"  c #3F2722",
". c #402623",
"X c #472621",
"o c #472722",
"O c #422724",
"+ c #422625",
"@ c #482621",
"# c #492722",
"$ c #492623",
"% c #452825",
"& c #472925",
"* c #4E2823",
"= c #492827",
"- c #492A27",
"; c #4C2A27",
": c #4C2729",
"> c #4B2829",
", c #4F2B29",
"< c #4E292A",
"1 c #4E2A2A",
"2 c #522926",
"3 c #582B27",
"4 c #5C2C27",
"5 c #502B28",
"6 c #532A29",
"7 c #522B2A",
"8 c #572828",
"9 c #572829",
"0 c #532C29",
"q c #532C2A",
"w c #542C29",
"e c #572C2B",
"r c #582829",
"t c #582B2A",
"y c #5D2B28",
"u c #5E2A2A",
"i c #582E29",
"p c #582C2A",
"a c #5D2F29",
"s c #5C2C2A",
"d c #5D2D2C",
"f c #5F2F2C",
"g c #5C302A",
"h c #632B27",
"j c #652B26",
"k c #672B26",
"l c #662C27",
"z c #692C27",
"x c #6E2D27",
"c c #6F2D27",
"v c #602A29",
"b c #672B29",
"n c #632C29",
"m c #632F2A",
"M c #642C2B",
"N c #652C2B",
"B c #672C2A",
"V c #622F2D",
"C c #682C2A",
"Z c #692C2A",
"A c #6D2D28",
"S c #6E2D28",
"D c #673228",
"F c #64302A",
"G c #61302D",
"H c #6A3029",
"J c #683329",
"K c #6B312A",
"L c #6E3129",
"P c #6F3129",
"I c #6F312A",
"U c #6C3629",
"Y c #6F3628",
"T c #6E3629",
"R c #6F3629",
"E c #69302E",
"W c #6A302E",
"Q c #6E302F",
"! c #70312F",
"~ c #6B3030",
"^ c #6D3130",
"/ c #6E3030",
"( c #6F3130",
") c #703130",
"_ c #713330",
"` c #703231",
/* pixels */
"@@@@@@@@@@@@@@@$@@@@@@@@@@@@@@@@&o#X#X#####XXXX@@@",
"@ZZZZZZZZ@______@<<<<<<<@_________#UU!YYY#zlBBBBZy",
"@ZZZZZZZZ@______@<<<<<<<@_________#YYYYYUXBBBBBBZu",
"@ZZZZZZZZ@______@<<<<<<<@_________#YYYYY!XmBBBBBbu",
"@ZZZZZZZZ@______@<<<<<<<@_________#YRRRRY@BBBBBBZy",
"@ZZZZZZZZ@______@<<<<<<<@_________#YRRRRY@BBBBBBBv",
"@ZZZZZZZZ@______@<<<<<<<@_______!!>RRRYRYoZBBBBBBv",
"@ZZZZZZZZX______@<<<<<<<@_______!!=RRRYYY@FBBBBBBv",
"@ZZZZZZZZ@______@<<<<<<<@_________oYYYYYJXVbBBBBBm",
"@ZZZZZZZZ@__/___@<<<<<<<@_________*YYYYY_XZbBBBBBy",
"@ZZZZZZZZ@______@<<<<<<<@_______!!#YYYYY!#VbBBBBZy",
"@ZZZZZZZZX______@<<<<<<<@__^____!U#YU!YYU#BBBBBBby",
"@ZZZZZZZb@____//@<<<<<<<$//_____^_o!UYYYU#jzBBBBbu",
"XZZZZZZBb@^^____@<<<<<<<@__/_//___o_UYYY!#BlBBBBbu",
"@ZBBBBBBbX^^/___@@<::::@@_______!R#Y!YYYYXBBBBBbbu",
"@ZZZZZZZBX^__///@@@X@@@@@//_/___!!#-YYYY@#BBBBBbbu",
"@@BkZZZZ@@______@=++O&X!QQ^Q_^_^!!oo@@@@@@ZBBBBZBv",
"@@X&@@@o@@_^S_^^@=%+O=@@^^QQQQQ^Q@o%o@;@@ZBBmbmjB@",
"@=&&&Xo>@^^_`^_o@===;;oo&@@@@Xo@@@o==o;@##XX@@X@XX",
"@=&-%>@>@@@@@$X$@;;,;;<=@@%%%%<@X==>=o=;;===&==2pw",
"@====:o<<<<>@<X:;;;2<<<2@=======X>><<X<<;;>>X=;233",
"@FGgffXw6<;=<@X=;;<<wp00@2;;;,0;@6000X6ww66wX06py4",
"$GFgpgXypww<6;@>660pgggg@pppppwp@uygg@MpFfgG@mjZBj",
"$VgBMV@hgvgggp@mFmmmFFFB@ppppppp@yMMv@~/WW~~@zkIxl",
"@^^Z~~&BmbBmMy@AKDBDDDFF@w6pt6ttXMMvM@/^^^S!@IAcxl",
"@^^^^^XBBZbBNu@IPKKKZPHH@t8rtt6rXbMMM@__^_`_@cccxj",
"@____!XZZZZZZv@IPPPPPPPH@t6888t8@ZZbZ@______@cccxk",
"@__^_QXZZZZZZv@)PPPPQPPP@trr8trr@ZNZZ@____!!@ccccj",
"@/A_^^@ZZBBBZyXPQLLLPPPP@6r88rr8@bbZZ@/^____Xxxccj",
"X)_^^^@ZBBBBbyXPYLP!PPPP@8886yr6@ZNZZ$/_____XxAAcj",
"@^^^^^@@BZbZbX@PPPPPPPQx@@rr88r@@ZZZN@/~___/XAxxxj",
"X_^^_^@@@@X@@@ PPPPPQPP!@@@@@@@@XNZZZ@$//A/oXxxxxZ",
"@@//WX@>XO%%o@!PPQPPHHK@@O  OOo@FvZB@@@@@X@@@xxxAZ",
"@@XXXX@+XOO=o@@@XX@@@@X@@O  O%@@@X@@@oOoX&@@cxxxA$",
"&>o+%%o%XO==;;o=@&&O#&X=;;=;=<<7@<<<;=%&X&Xo@@@@@@",
"X>=+%%%=X<;,0;;=@O&&&X=02ww06<66@;6;==%=X===<wwpwp",
"X<<20pwy&Me0pwFgX03gg@ggygypyfV6@ygwpw0w&70ww6ppwp",
"XZzzzzLzX^^~QQ^~XYDUP@FZMBZvyMvN&DZFBDFGX77706pwp6",
"XcccxcccX!______#YYUD#ZZZZZZZZZZXPPlKKDZX<<<<7,76<",
"@xccxxcco!______#YY!U#ZZZZZZZZZZXPPPLLLL@<<<<<<<6<",
"@ccccccc@!______oYYYYoZZZZZZZZZZ@PPPPPPP@<<<<<<<<<",
"@ccccccco_______oYYY!@ZZZZZZZZZZ@PPPPPPP@<<<<<<<<<",
"@ccccccco!______oYYY!#zZZZZZZZZZ@PPPPP!P@<<<<<<<<<",
"@ccccccc@!______@YYYY#zZZZZZZZZZ@PPPPPL!@<<<<<<<<<",
"@ccccccc@^^_____XQYYUXZZZZZZZZZB@PPPLLLL@<<<<<<<<<",
"@ccccccc@A^^__!^XYYY!XZZZZZZZZZZ@@HkKLL*@<<<<<<<<<",
"@cccccAA@6GfgGZo@YYYY@ZZZZZZZZZZ#oXX@@@@@<<<<<<<<<",
"@cccccIv@X@@@*@o&UYYY@ZZZZZZZZZB@%=o@<<<<<<<<<<<<<",
"@cIcccct@6:<=62oUUYYJ@ZZZZZZZZZl@===X<<<;:6<<<<<<<",
"@@kcccc@@*7<=6wo@UY!@oolZZZZZZZ@@w0w@@<<;;<<<<<<<X"
};
