/* XPM */
static char *result[] = {
/* columns rows colors chars-per-pixel */
"64 64 155 2 ",
"   c #A8E61D",
".  c #A8E61E",
"X  c #A9E623",
"o  c #AAE728",
"O  c #ABE729",
"+  c #ACE72D",
"@  c #ACE72E",
"#  c #ACE82E",
"$  c #ADE82F",
"%  c #ADE830",
"&  c #ADE831",
"*  c #ADE832",
"=  c #ADE833",
"-  c #AEE834",
";  c #AEE835",
":  c #AEE836",
">  c #AEE936",
",  c #AEE837",
"<  c #AFE937",
"1  c #AFE838",
"2  c #AFE938",
"3  c #AFE93A",
"4  c #B1EA3F",
"5  c #8F9652",
"6  c #92A24B",
"7  c #9A9A7A",
"8  c #9CA276",
"9  c #B1EA40",
"0  c #B1EA41",
"q  c #B2EA43",
"w  c #B2EA45",
"e  c #B2EA46",
"r  c #B3EA47",
"t  c #B3EA48",
"y  c #B3EB48",
"u  c #B3EA49",
"i  c #B4EB4A",
"p  c #B4EB4B",
"a  c #B4EB4C",
"s  c #B4EB4D",
"d  c #B5EB4E",
"f  c #B5EB4F",
"g  c #B5EB50",
"h  c #B6EC53",
"j  c #B7EC58",
"k  c #B8EC59",
"l  c #B9ED5C",
"z  c #B9ED5E",
"x  c #BFF073",
"c  c #BFF075",
"v  c #C0F077",
"b  c #C0F079",
"n  c #C1F07A",
"m  c #C1F07B",
"M  c #C1F17E",
"N  c #C1F17F",
"B  c #6F3198",
"V  c #71359A",
"C  c #72379A",
"Z  c #74399C",
"A  c #763D9E",
"S  c #773F9F",
"D  c #7943A1",
"F  c #7A43A1",
"G  c #7B44A2",
"H  c #7B45A2",
"J  c #8859AC",
"K  c #8B5FAF",
"L  c #946FB8",
"P  c #9570B8",
"I  c #9571B9",
"U  c #9673BA",
"Y  c #9774BA",
"T  c #9774BB",
"R  c #9876BC",
"E  c #9977BD",
"W  c #9C7DBF",
"Q  c #9D7DC0",
"!  c #A79FA5",
"~  c #A8A3A3",
"^  c #B7BFAF",
"/  c #B7BFB1",
"(  c #C2F181",
")  c #C3F181",
"_  c #C3F182",
"`  c #C3F284",
"'  c #C3F285",
"]  c #C4F286",
"[  c #C4F287",
"{  c #C4F289",
"}  c #C5F289",
"|  c #C5F28A",
" . c #C4F38A",
".. c #C5F38A",
"X. c #C5F28B",
"o. c #C5F38D",
"O. c #C6F28C",
"+. c #C6F38D",
"@. c #C6F28E",
"#. c #C6F38E",
"$. c #C6F38F",
"%. c #C7F38F",
"&. c #C6F390",
"*. c #C7F391",
"=. c #C7F392",
"-. c #C7F393",
";. c #C7F492",
":. c #C7F395",
">. c #C8F493",
",. c #C8F494",
"<. c #C8F495",
"1. c #C8F496",
"2. c #C9F496",
"3. c #C9F497",
"4. c #C9F499",
"5. c #CAF49B",
"6. c #CAF49D",
"7. c #CAF59D",
"8. c #CAF59E",
"9. c #CAF59F",
"0. c #C5DCB6",
"q. c #CBF5A0",
"w. c #CBF5A1",
"e. c #CCF5A3",
"r. c #CCF6A5",
"t. c #CDF6A5",
"y. c #CDF6A7",
"u. c #CDF6A8",
"i. c #CDF6A9",
"p. c #CEF6AE",
"a. c #CFF7AF",
"s. c #D0F7B2",
"d. c #D0F7B5",
"f. c #D2F8B8",
"g. c #D2F8B9",
"h. c #D2F8BA",
"j. c #D2F8BB",
"k. c #D3F9BC",
"l. c #9F81C2",
"z. c #A082C2",
"x. c #A184C4",
"c. c #A185C4",
"v. c #A286C4",
"b. c #B09DD0",
"n. c #B09ED1",
"m. c #B2A0D2",
"M. c #B4A4D2",
"N. c #B3A3D4",
"B. c #B4A3D4",
"V. c #B5A5D5",
"C. c #B5A6D4",
"Z. c #B5A4D6",
"A. c #BFC2CB",
"S. c #C9DEC3",
"D. c None",
/* pixels */
"D.D.D.D.D.D.D.D.D.D.D.D.D.D.D.D.D.D.D.D.D.D.D.D.D.D.D.D.D.D.D.D.D.D.D.D.D.D.D.D.D.D.D.D.D.D.D.D.D.D.D.D.D.D.D.D.D.D.D.D.D.D.D.D.",
"D.D.D.D.D.D.D.D.D.D.D.D.D.D.D.D.D.D.D.D.D.D.D.D.D.D.D.D.D.D.D.D.D.D.D.D.D.D.D.D.D.D.D.D.D.D.D.D.D.D.D.D.D.D.D.D.D.D.D.D.D.D.D.D.",
"D.D.R b.V.V.V.V.V.V.V.V.V.V.V.V.V.V.V.V.V.V.V.V.V.V.V.V.V.V.V.V.V.V.V.V.V.V.V.V.V.V.V.V.V.V.V.V.V.V.V.V.V.V.V.V.V.V.V.V.n.E D.D.",
"D.D.V L m.N.V.V.V.V.V.V.V.V.V.V.V.V.V.V.V.V.V.V.V.V.V.V.V.V.V.V.V.V.V.V.V.V.V.V.V.V.V.V.V.V.V.V.V.V.V.V.V.V.V.V.V.V.B.m.U C D.D.",
"D.D.B B R c.V.V.V.V.V.V.V.V.V.V.V.V.V.V.V.V.V.V.V.V.V.V.V.V.V.V.V.V.V.V.V.V.V.V.V.V.V.V.V.V.V.V.V.V.V.V.V.V.V.V.V.V.v.R B B D.D.",
"D.D.B B B F z.M.C.C.C.C.C.C.C.C.C.C.C.C.C.C.C.C.C.C.C.C.C.C.C.C.C.C.C.C.C.C.C.C.C.C.C.C.C.C.C.C.C.C.C.C.C.C.C.C.M.x.G B B B D.D.",
"D.D.B B B B V ! ^ A.A.A.A.A.A.A.A.A.A.A.A.A.A.A.A.A.A.A.A.A.A.A.A.A.A.A.A.A.A.A.A.A.A.A.A.A.A.A.A.A.A.A.A.A.A./ ~ Z B B B B D.D.",
"D.D.B B B B B 5 a e.k.k.k.k.k.k.k.k.k.k.k.k.k.k.k.k.k.k.k.k.k.k.k.k.k.k.k.k.k.k.k.k.k.k.k.k.k.k.k.k.k.k.k.k.e.g 6 B B B B B D.D.",
"D.D.B B B B B 5   h w.k.k.k.k.k.k.k.k.k.k.k.k.k.k.k.k.k.k.k.k.k.k.k.k.k.k.k.k.k.k.k.k.k.k.k.k.k.k.k.k.k.k.e.h   6 B B B B B D.D.",
"D.D.B B B B B 5     f 8.k.k.k.k.k.k.k.k.k.k.k.k.k.k.k.k.k.k.k.k.k.k.k.k.k.k.k.k.k.k.k.k.k.k.k.k.k.k.k.k.w.h     6 B B B B B D.D.",
"D.D.B B B B B 5       u r.k.k.k.k.k.k.k.k.k.k.k.k.k.k.k.k.k.k.k.k.k.k.k.k.k.k.k.k.k.k.k.k.k.k.k.k.k.k.y.g       6 B B B B B D.D.",
"D.D.B B B B B 5         j 8.k.k.k.k.k.k.k.k.k.k.k.k.k.k.k.k.k.k.k.k.k.k.k.k.k.k.k.k.k.k.k.k.k.k.k.k.q.l         6 B B B B B D.D.",
"D.D.B B B B B 5           t t.k.k.k.k.k.k.k.k.k.k.k.k.k.k.k.k.k.k.k.k.k.k.k.k.k.k.k.k.k.k.k.k.k.k.u.d           6 B B B B B D.D.",
"D.D.B B B B B 5             k 7.k.k.k.k.k.k.k.k.k.k.k.k.k.k.k.k.k.k.k.k.k.k.k.k.k.k.k.k.k.k.k.k.q.z             6 B B B B B D.D.",
"D.D.B B B B B 5               r a.k.k.k.k.k.k.k.k.k.k.k.k.k.k.k.k.k.k.k.k.k.k.k.k.k.k.k.k.k.k.s.s               6 B B B B B D.D.",
"D.D.B B B B B 5                 v k.k.k.k.k.k.k.k.k.k.k.k.k.k.k.k.k.k.k.k.k.k.k.k.k.k.k.k.k.k.N                 6 B B B B B D.D.",
"D.D.B B B B B 5                 % *.f.k.k.k.k.k.k.k.k.k.k.k.k.k.k.k.k.k.k.k.k.k.k.k.k.k.k.g.,.=                 6 B B B B B D.D.",
"D.D.B B B B B 5                   + @.k.k.k.k.k.k.k.k.k.k.k.k.k.k.k.k.k.k.k.k.k.k.k.k.k.k.&.=                   6 B B B B B D.D.",
"D.D.B B B B B 5                     - $.g.k.k.k.k.k.k.k.k.k.k.k.k.k.k.k.k.k.k.k.k.k.k.g.;.:                     6 B B B B B D.D.",
"D.D.B B B B B 5                       o &.k.k.k.k.k.k.k.k.k.k.k.k.k.k.k.k.k.k.k.k.k.k.=.#                       6 B B B B B D.D.",
"D.D.B B B B B 5                         : +.h.k.k.k.k.k.k.k.k.k.k.k.k.k.k.k.k.k.k.h.%.1                         6 B B B B B D.D.",
"D.D.B B B B B 5                           X -.k.k.k.k.k.k.k.k.k.k.k.k.k.k.k.k.k.k.:.O                           6 B B B B B D.D.",
"D.D.B B B B B 5                             , ..k.k.k.k.k.k.k.k.k.k.k.k.k.k.k.k.+.3                             6 B B B B B D.D.",
"D.D.B B B B B 5                                 1.h.k.k.k.k.k.k.k.k.k.k.k.k.k.1.X                               6 B B B B B D.D.",
"D.D.B B B B B 5                                 , { k.k.k.k.k.k.k.k.k.k.k.k.+.,                                 6 B B B B B D.D.",
"D.D.B B B B B 5                                   X <.g.k.k.k.k.k.k.k.k.h.3.X                                   6 B B B B B D.D.",
"D.D.B B B B B 5                                     :  .k.k.k.k.k.k.k.k.o.3                                     6 B B B B B D.D.",
"D.D.B B B B B 5                                       o ,.f.k.k.k.k.g.2.O                                       6 B B B B B D.D.",
"D.D.B B B B B 5                                         - | k.k.k.k.+.1                                         6 B B B B B D.D.",
"D.D.B B B B B 5                                           + >.f.g.<.#                                           6 B B B B B D.D.",
"D.D.B B B B B 5                                             % O.#.:                                             6 B B B B B D.D.",
"D.D.B B B B B 5                                               % =                                               6 B B B B B D.D.",
"D.D.B B B B B 5                                               : 2                                               6 B B B B B D.D.",
"D.D.B B B B B 5                                             + ] X.%                                             6 B B B B B D.D.",
"D.D.B B B B B 5                                           : x k.k.n <                                           6 B B B B B D.D.",
"D.D.B B B B B 5                                         @ ' k.k.k.k.} &                                         6 B B B B B D.D.",
"D.D.B B B B B 5                                       ; c k.k.k.k.k.k.m >                                       6 B B B B B D.D.",
"D.D.B B B B B 5                                     $ ` k.k.k.k.k.k.k.k.[ *                                     6 B B B B B D.D.",
"D.D.B B B B B 5                                   - v k.k.k.k.k.k.k.k.k.k.M ;                                   6 B B B B B D.D.",
"D.D.B B B B B 5                                 - ( k.k.k.k.k.k.k.k.k.k.k.k.' -                                 6 B B B B B D.D.",
"D.D.B B B B B 5                               $ ) j.k.k.k.k.k.k.k.k.k.k.k.k.k.) &                               6 B B B B B D.D.",
"D.D.B B B B B 5                             ; v k.k.k.k.k.k.k.k.k.k.k.k.k.k.k.k.m <                             6 B B B B B D.D.",
"D.D.B B B B B 5                           @ ` k.k.k.k.k.k.k.k.k.k.k.k.k.k.k.k.k.k.} %                           6 B B B B B D.D.",
"D.D.B B B B B 5                         : c k.k.k.k.k.k.k.k.k.k.k.k.k.k.k.k.k.k.k.k.n 2                         6 B B B B B D.D.",
"D.D.B B B B B 5                       + ' k.k.k.k.k.k.k.k.k.k.k.k.k.k.k.k.k.k.k.k.k.k.X.%                       6 B B B B B D.D.",
"D.D.B B B B B 5                     : x k.k.k.k.k.k.k.k.k.k.k.k.k.k.k.k.k.k.k.k.k.k.k.k.b 2                     6 B B B B B D.D.",
"D.D.B B B B B 5                   + ] k.k.k.k.k.k.k.k.k.k.k.k.k.k.k.k.k.k.k.k.k.k.k.k.k.k.X.%                   6 B B B B B D.D.",
"D.D.B B B B B 5                 : x k.k.k.k.k.k.k.k.k.k.k.k.k.k.k.k.k.k.k.k.k.k.k.k.k.k.k.k.b 2                 6 B B B B B D.D.",
"D.D.B B B B B 5               . m k.k.k.k.k.k.k.k.k.k.k.k.k.k.k.k.k.k.k.k.k.k.k.k.k.k.k.k.k.k._ .               6 B B B B B D.D.",
"D.D.B B B B B 5               q e.k.k.k.k.k.k.k.k.k.k.k.k.k.k.k.k.k.k.k.k.k.k.k.k.k.k.k.k.k.k.i.e               6 B B B B B D.D.",
"D.D.B B B B B 5             w 6.k.k.k.k.k.k.k.k.k.k.k.k.k.k.k.k.k.k.k.k.k.k.k.k.k.k.k.k.k.k.k.k.9.y             6 B B B B B D.D.",
"D.D.B B B B B 5           0 u.k.k.k.k.k.k.k.k.k.k.k.k.k.k.k.k.k.k.k.k.k.k.k.k.k.k.k.k.k.k.k.k.k.k.p.q           6 B B B B B D.D.",
"D.D.B B B B B 5         y 5.k.k.k.k.k.k.k.k.k.k.k.k.k.k.k.k.k.k.k.k.k.k.k.k.k.k.k.k.k.k.k.k.k.k.k.k.6.p         6 B B B B B D.D.",
"D.D.B B B B B 5       4 p.k.k.k.k.k.k.k.k.k.k.k.k.k.k.k.k.k.k.k.k.k.k.k.k.k.k.k.k.k.k.k.k.k.k.k.k.k.k.d.9       6 B B B B B D.D.",
"D.D.B B B B B 5     y 4.k.k.k.k.k.k.k.k.k.k.k.k.k.k.k.k.k.k.k.k.k.k.k.k.k.k.k.k.k.k.k.k.k.k.k.k.k.k.k.k.6.p     6 B B B B B D.D.",
"D.D.B B B B B 5   4 p.k.k.k.k.k.k.k.k.k.k.k.k.k.k.k.k.k.k.k.k.k.k.k.k.k.k.k.k.k.k.k.k.k.k.k.k.k.k.k.k.k.k.d.4   6 B B B B B D.D.",
"D.D.B B B B B 5 y 4.k.k.k.k.k.k.k.k.k.k.k.k.k.k.k.k.k.k.k.k.k.k.k.k.k.k.k.k.k.k.k.k.k.k.k.k.k.k.k.k.k.k.k.k.4.i 6 B B B B B D.D.",
"D.D.B B B B A 7 0.S.S.S.S.S.S.S.S.S.S.S.S.S.S.S.S.S.S.S.S.S.S.S.S.S.S.S.S.S.S.S.S.S.S.S.S.S.S.S.S.S.S.S.S.S.S.0.8 S B B B B D.D.",
"D.D.B B B D I V.V.V.V.V.V.V.V.V.V.V.V.V.V.V.V.V.V.V.V.V.V.V.V.V.V.V.V.V.V.V.V.V.V.V.V.V.V.V.V.V.V.V.V.V.V.V.V.V.V.T H B B B D.D.",
"D.D.B B A W V.V.V.V.V.V.V.V.V.V.V.V.V.V.V.V.V.V.V.V.V.V.V.V.V.V.V.V.V.V.V.V.V.V.V.V.V.V.V.V.V.V.V.V.V.V.V.V.V.V.V.V.l.S B B D.D.",
"D.D.B F P V.V.V.V.V.V.V.V.V.V.V.V.V.V.V.V.V.V.V.V.V.V.V.V.V.V.V.V.V.V.V.V.V.V.V.V.V.V.V.V.V.V.V.V.V.V.V.V.V.V.V.V.V.V.Y H B D.D.",
"D.D.A Q V.V.V.V.V.V.V.V.V.V.V.V.V.V.V.V.V.V.V.V.V.V.V.V.V.V.V.V.V.V.V.V.V.V.V.V.V.V.V.V.V.V.V.V.V.V.V.V.V.V.V.V.V.V.V.V.l.S D.D.",
"D.D.J Z.Z.Z.Z.Z.Z.Z.Z.Z.Z.Z.Z.Z.Z.Z.Z.Z.Z.Z.Z.Z.Z.Z.Z.Z.Z.Z.Z.Z.Z.Z.Z.Z.Z.Z.Z.Z.Z.Z.Z.Z.Z.Z.Z.Z.Z.Z.Z.Z.Z.Z.Z.Z.Z.Z.Z.Z.Z.K D.D.",
"D.D.D.D.D.D.D.D.D.D.D.D.D.D.D.D.D.D.D.D.D.D.D.D.D.D.D.D.D.D.D.D.D.D.D.D.D.D.D.D.D.D.D.D.D.D.D.D.D.D.D.D.D.D.D.D.D.D.D.D.D.D.D.D."
};
