/* XPM */
static char *a01f7917fb804127f4c6bd17536e7b21QULyj0fihf1mOFB5[] = {
/* columns rows colors chars-per-pixel */
"32 32 3 1 ",
"  c None",
". c #6F3198",
"X c #D3F9BC",
/* pixels */
"                                ",
"                                ",
"                                ",
"                                ",
"       ..................       ",
"       ..................       ",
"       ..................       ",
"       ..................       ",
"       ..................       ",
"       ..................       ",
"       ..................       ",
"       ....XXXXXXXXXX....       ",
"       ....XXXXXXXXXX....       ",
"       ....XXXXXXXXXX....       ",
"       ....XXXXXXXXXX....       ",
"       ....XXXXXXXXXX....       ",
"       ....XXXXXXXXXX....       ",
"       ....XXXXXXXXXX....       ",
"       ....XXXXXXXXXX....       ",
"       ....XXXXXXXXXX....       ",
"       ....XXXXXXXXXX....       ",
"       ..................       ",
"       ..................       ",
"       ..................       ",
"       ..................       ",
"       ..................       ",
"       ..................       ",
"                                ",
"                                ",
"                                ",
"                                ",
"                                "
};
