/* XPM */
static char *_dc2a572b0904f68f98f519690b0e4aae2H7eG7kKl6N3qvV[] = {
/* columns rows colors chars-per-pixel */
"50 50 87 1 ",
"  c #160515",
". c #1B0513",
"X c #1B0514",
"o c #1A0716",
"O c #1C0414",
"+ c #1C0514",
"@ c #1E0514",
"# c #1E0715",
"$ c #1D0817",
"% c #1D0818",
"& c #1F081A",
"* c #200615",
"= c #210917",
"- c #230916",
"; c #240815",
": c #240816",
"> c #280917",
", c #20081B",
"< c #210A1A",
"1 c #240918",
"2 c #250C19",
"3 c #22091C",
"4 c #23091C",
"5 c #230A1C",
"6 c #250B1E",
"7 c #260C1C",
"8 c #2A0A1B",
"9 c #2D0B18",
"0 c #2D0A19",
"q c #2E0B18",
"w c #2E0E18",
"e c #2A0B1C",
"r c #2A0C1C",
"t c #280E1E",
"y c #370B17",
"u c #320B1B",
"i c #340B1B",
"p c #350B1B",
"a c #300D1B",
"s c #350E19",
"d c #310B1D",
"f c #370B1C",
"g c #320C1D",
"h c #360C1D",
"j c #3A0C1B",
"k c #380F1B",
"l c #3C0C1A",
"z c #3C0D1B",
"x c #390B1C",
"c c #3B0C1D",
"v c #2D101F",
"b c #351018",
"n c #361119",
"m c #30111F",
"M c #39121A",
"N c #3B121B",
"B c #3D141B",
"V c #3E101C",
"C c #3F151C",
"Z c #3B0F20",
"A c #2D1121",
"S c #2E1221",
"D c #321020",
"F c #361021",
"G c #331523",
"H c #351624",
"J c #3A1221",
"K c #3D1323",
"L c #3A1927",
"P c #3D1B29",
"I c #410E1B",
"U c #420E1A",
"Y c #42111C",
"T c #41151C",
"R c #401023",
"E c #431123",
"W c #411222",
"Q c #441123",
"! c #441222",
"~ c #401224",
"^ c #451D2A",
"/ c #431E2C",
"( c #421F2C",
") c #451F2C",
"_ c #42202C",
"` c #44212D",
"' c #45212D",
/* pixels */
"++++++++++++X+++++++XX++++++++++@@..@@+++@.+XXXXXX",
"+ccccccccccccccc+4+*<VTTTTTTTTTTTTTTTBTT+hhcchcccd",
"+cccccccccccccc+X444%XXnTTTTTTTTTTTTTTT+chhcccccca",
"+cccccccccccccc+444444&&+TTTTTTTTTTTTTb.cchchchhhd",
"+ccccccccccccc=&44444&6&,+XTTTTTTTTTTT.hhcchchhcci",
"+ccccccccccccc.4&4&444&644XXBTTTTTTTT@qcchchccccci",
"+cccccccccccchX44&44444&4444++TTTTTTt*chchcchcchci",
"+cccccccccccc.&44444&4&644444++TTTTs@jchhcchchhcci",
"+ccccccccccchX44444444++++++++*+@@@.cchchcchcchcch",
"+cccccccccccX4444,4<4++4''''''''```@cccccchchhcchc",
"+cccccccccccX444&4444+L'''''''''``=8hcchhchcchchch",
"+ccccccccccX44&444444+''''''''''``@cchhchcchcchccc",
"+cccccccccqX444444444+'''''''''''<+hhcchcchccchch0",
"Xccccccccc++44444&4&4+'(')'')'''(.zcchcchcchhcchcF",
"+ccchcccc+qYX+44&6444++'''''''''@chcchchhcchchhcch",
"+ccccccc++YYYzX+6&6&44*+P'_('''+chcchcchcchcchcchO",
".cjcccz=+YYYYYYa 44444<+''('''+Jhcchcchchhhcchc:+1",
"+ccccc:+YYYYYYYYYXX444X+'''''+qzchhcchcccchchcO.0O",
"+cccch+YYYYYYYYYYYdX+4+'''''A+chcccchcchhccc<*++1c",
"+ccca++YYYYYYYYYYYYV+++H''HX++hchchcchhcchc.+++&YY",
"+cc++$+qYYYYYYYYYYYYYYA7=+++&dccjq+.+&ccchOOQJ+iYY",
"+q*,AA++YYYYYYYYYYYYYYYYYYYYz+X.@=88eXcjcX*QQ*+YYY",
"++GGmG@+jYYYYYYYYYYYYYYYYYYYY*r888888+c@.WKQQOiYYY",
"@HHDGH.h+YYYYYYYYYYYYYYYYYYYY.888888=@O,EEQQQOIYYY",
"@JKJJJ+c**YYYYYYYYYYYYYYYYYYYXee888.++QQQQQQ*+YYYY",
"@WWRRRXcc+cYYYYYYYYYYYYYYYYY+q8e88O@Q!QQQQQ!+MYYYY",
"@!!Q!~XccO*YYYYYYYYYYYYYYYYY+8888ODQQQQQQQ!+*UYYYY",
".WQQ!~Xcc++<YYYYYYYYYYYYYYYY+8888,RQQQQQQQ!+YYYYYY",
"+~JRRW+zzXT+@YYYYYYYYYYYYYY+188881DQRQ!!Q!OAYYYYYj",
"+RR!R~Xcz+TT=@YYYYYYYYYYYY+188888eOQ!QQRQODYYYYYYY",
"+~~W~R++++TTTM+*YYYYYYYYY+*88888eeOQ!QWM+YIIYYYYYY",
"+!!~~F*':@TTTTTM+*++*:**+*888888eeOQQ!+*zYYYYYYYYY",
"++!KJ.W''<TTTTTTTTTTTBBT@8888888881+XXhYYYYYYYYYYn",
"++++@@'''*TTTTTTTTTTTTTT@888888888*+jYYYYYYYYYYYIX",
"X&X @A''',BTTTTTTTTTTTTa$888888e*++YYYYYYYYYYYY+XX",
"X&oX+_'''H>TTTTTTTTTTTT$888888+X*YYYYYYYYYYYYY++rr",
"X&<7.'''_'+TTTTTTTTTTTT@88r8@.MUYYYYYYYYYYYYY+=r77",
"+zzc.'''''*TTTTTTTTTTTT+88*@9YYYYYYYYYYYYYYYY+7rA7",
"+IIU*''''_+BTTTTTTTTTTT@8@@:+YYYYYYYYYYYYYYY+&7774",
"+IUU+^'''''@TTTTTTTTTTT@@sjj*aYYYYYYYYYYYYYY+44466",
"*UUUy+'_'''*TTTTTTTTTTT.+cccc+YYYYYYYYYYYYYYX4444&",
"@UUUY+^'''''+TTTTTTTTTT.cccccc+YYYYYYYYYYYYM+44444",
"@UUUUU@'''''=MTTBTTTTTT@ccccccc+YYYYYYYYYYY+&4444&",
".UUUUU@^'''''+TTBTTTTT<pcccccccc+YYYYYYYYYY+444&44",
".UUUUUU@'''''+MTTTTTTT+cccccccch++YYYYYYYYVX4444&4",
".UUUUUU@_'''_'+TTTTTTT+ccccccccc++XhYYYYYYX44&4&7&",
"@UUUUUU@v'''''=:TTTTT:qccccccccc.++++nYYYYX4444444",
".UUUUYz@++='_'=*TBTTY*ccccccccczX&X&+++XXX%&4&444&",
".UUUUUU++<,*@@.XXBTTM+ccccccccchX&&$.444&44444&444",
"++zUUUU@+&<<<1v@X+TT+++hccccccc+.777..44&&444&444X"
};
