/* XPM */
static char *fe59deb0b14d4d2dc08ef90b03aca2bcjypI55dJe04vyg92[] = {
/* columns rows colors chars-per-pixel */
"50 50 135 2 ",
"   c #3C1516",
".  c #3C1D1B",
"X  c #3E211E",
"o  c #3F1F20",
"O  c #3E2322",
"+  c #3D2827",
"@  c #3F2629",
"#  c #3E2929",
"$  c #421E1D",
"%  c #43221E",
"&  c #48221F",
"*  c #442523",
"=  c #492524",
"-  c #452926",
";  c #492926",
":  c #452728",
">  c #492629",
",  c #442B2C",
"<  c #4A2C2C",
"1  c #532E2D",
"2  c #45302E",
"3  c #4D302F",
"4  c #54312F",
"5  c #5A342E",
"6  c #442E30",
"7  c #4B2E31",
"8  c #552F30",
"9  c #582F32",
"0  c #463132",
"q  c #4C3232",
"w  c #4C3638",
"e  c #553332",
"r  c #5A3232",
"t  c #593132",
"y  c #5C3233",
"u  c #5A3431",
"i  c #583533",
"p  c #5A3433",
"a  c #593632",
"s  c #5A3334",
"d  c #5B3334",
"f  c #583434",
"g  c #593535",
"h  c #5B3435",
"j  c #583634",
"k  c #583635",
"l  c #583436",
"z  c #593736",
"x  c #5A3636",
"c  c #5D3535",
"v  c #5B3534",
"b  c #573A34",
"n  c #573836",
"m  c #573A36",
"M  c #563936",
"N  c #583934",
"B  c #593A35",
"V  c #5B3A35",
"C  c #583936",
"Z  c #5B3836",
"A  c #5A3837",
"S  c #593A37",
"D  c #5A3B36",
"F  c #5C3B34",
"G  c #5E3B37",
"H  c #5B3D35",
"J  c #593C36",
"K  c #5B3C37",
"L  c #5D3C35",
"P  c #5D3C37",
"I  c #5F3C36",
"U  c #5C3E36",
"Y  c #5F3E37",
"T  c #5D3935",
"R  c #573538",
"E  c #593738",
"W  c #5B3738",
"Q  c #563838",
"!  c #553B3A",
"~  c #573D3C",
"^  c #563A39",
"/  c #583839",
"(  c #583A3A",
")  c #5E3B39",
"_  c #5B3C39",
"`  c #593D3A",
"'  c #5F3C38",
"]  c #5F3E39",
"[  c #5D3E3B",
"{  c #5C3F3B",
"}  c #5E3F3A",
"|  c #583E3D",
" . c #5A3E3D",
".. c #5E3F3C",
"X. c #5C3B3A",
"o. c #613635",
"O. c #603D37",
"+. c #613A36",
"@. c #613738",
"#. c #613B38",
"$. c #603D39",
"%. c #623C39",
"&. c #603F38",
"*. c #613E3A",
"=. c #603F3A",
"-. c #623F3B",
";. c #623F3D",
":. c #623D3B",
">. c #5F403B",
",. c #5D403C",
"<. c #5F423E",
"1. c #5E413D",
"2. c #62413A",
"3. c #60413C",
"4. c #62413C",
"5. c #61423F",
"6. c #60433F",
"7. c #64413D",
"8. c #62423D",
"9. c #68423F",
"0. c #69413D",
"q. c #613F40",
"w. c #5D4342",
"e. c #5D4440",
"r. c #634441",
"t. c #634642",
"y. c #644543",
"u. c #644845",
"i. c #664945",
"p. c #684A47",
"a. c #664A49",
"s. c #6A4C49",
"d. c #6F514F",
"f. c #70514E",
"g. c #6F5350",
/* pixels */
": < * - * * * = * * * > * : O < + + - - - + + * - - * ; % % % ; - * - ; % 3 % O - - ; * * * > > : - ",
": e q Q R a a x e e e x R R Q q * , , + , ~ w.Q  .~ <.J <.>.2.2.J a ' C ,.,.6.,.- ; e a E e 9 9 e e ",
"O e e M e e 4 e t 5 i e e q ( - + # 2 q + . - ~  .` ,.b >.>.b 2.$.G $.$.F 4 ,.% e e i e e 4 e e 8 < ",
": C R R 1 5 e t a t i a M e R * , q 2 # 2 w , o O u.M <.>.4 2.5 $.$.L 7.J 2.4 - N i i 4 1 1 e t R 1 ",
"* e e e 1 t d t t t 1 e e R : : , , # 6 6 # : 6 2 X * u.,.b b >.O.$.#.a $.L % R 3 5 e t R e e e 8 8 ",
"= e e d t c c t y c t x e E * 7 7 0 6 6 6 6 , - - 3 ; X ,.>.b >.$.G #.$.L & ; 5 e 4 1 e 5 1 8 1 e e ",
"* 1 8 t 4 y t 1 9 t e d e < : < , # 6 6 6 , , , 3 3 - ; % X >.b X.G X.0.4 $ ( 1 4 5 8 t e d e t 1 8 ",
"= t e y y t y 5 t t x e e : 7 > 6 6 # 6 , 6 < 7 3 O - 3 ; ; % >.X.' :.5 & v 1 i e e 8 8 8 9 9 8 9 e ",
"> e e t 9 y t t t e e 8 e : 7 6 6 6 6 6 + 6 , # - O < - - > * * * % * - C 4 5 4 5 9 4 9 4 9 5 9 9 t ",
"> R e d e y 9 t 8 x R q : , 6 6 6 # 0 6 7 , O , w.u.i.r.8.y.y.y.a.t.d.X e i i R 1 y 9 9 y 9 9 4 e t ",
"> R e R t t t t d 8 R E : 7 6 + 6 6 6 # : @ a.a.a.a.i.p.p.i.p.p.i.1.< < e e 4 4 9 9 9 9 9 9 4 9 1 t ",
"> R e e t t 8 t e R R < , : 6 0 0 # 0 6 0 @ ~ a.a.i.u.r.i.p.i.p.t.d.. R 3 i 3 M 9 e 9 9 9 9 9 9 d t ",
"* i e e 8 t e t e W < o , , w # 0 @ 6 # - - a.w.i.i.s.y.q.s.r.r.r.< < x e 8 5 1 4 t 9 9 9 9 8 9 8 1 ",
"* i 5 e e d t t 8 E o : q 6 + 0 0 0 0 2 , - a.u.i.q.s.s.i.y.y.s.p.* e 1 e 8 t y t t t t 8 e e e x e ",
"= t e R 8 v t t E $ 8 w.O O 7 , , 2 # - w + X s.a.y.q.s.y.q.s.p.% C a 1 e t ; y t t t 5 e 4 e e e 1 ",
"= x e t 9 t t t = = X.e  . .- + 2 , , 2 - : , * 8.a.y.s.y.i.s.& 4 a 1 c 1 y 9 y 4 t t 1 4 5 e R < < ",
"> 1 8 ( e t t * = X.G c X.a R 5 * < < , # 7 : : w.a.6.i.<.g.% J 5 1 e 9 1 9 8 d 8 y v 1 4 3 ! , - < ",
"* E R R 4 4 1 > o.:.t x #.v T #.,.. * e : 7 6 O a.w.i.,.g.% 3 M t t t e 5 e 8 8 e 8 1 5 ` e - O ; - ",
"* e ( e e e % 7.@.c t @.#.o.o.v C <.3 X 7 7 O d.u.u.<.p.e * ( < 8 1 < 8 8 8 e e i 5 i 4 : : , , 3 4 ",
"< q q Q 3 - - i X.X.#.o.v o.@.+.L a M e < : o ( i.d.,.X * * d e e e ( R R < R R e 1 4 < O : : - C ( ",
"O w Q < * - X 3 c x #.c o.@.@.y 4 2.-.#.t X.9 < - % % < * e 7 R R < * O : > R 9 3 X.> %  .( : q X.G ",
"- q . - w M ; * x x E #.#.y 9 9 T T 4 -.c y @.;.T O.a C  .- * * * - q q 7 * R E R $ * (  .* : Q v o.",
": + ~ w.e M - ; x  .x c o.o.o.+.o.2.5 v c :.c c G 5 G x E . R : q , , < q , 8 * $ X.7.x [ : R R v #.",
"+ ! ~ e M C $ e * X.c #.o.o.+.y 5 o.o.o.y #.y @.c y #.x X.> < 7 q < e 7 < o < *  .G X.x q.o X.x o.v ",
"* ( ( C ` Q - e - ; a X.#.v #.+.o.v v o.o.o.o.c v #.:.x  .O R , < 3 q - * * X.X.X.q.e @.; % G G 5 o.",
"> X.x ( X.( * 4 e * C a 4 o.y 5 o.o.o.v o.o.o.o.o.v c X.% e < < < 7 O * <.$.X.G q.c q.q.; t #.T o.T ",
"% $.$.X.( ( < R e * ; X.$.4 -.#.5 T v o.o.o.o.5 o.#.5 X.- 3 q < 7 - R  .x e $.X.@.c :.& $ y 5 o.T o.",
"> X.x x c E - e R 1   ; 7.a v v v T o.v o.o.#.T o.G x X.. q < 3 q : R X.X.7.c G #.c r.$ 0.o.o.5 o.o.",
"= c c  .q.Q * R e * r.- % 7.a 4 o.c G v o.o.T T 5 X.R * < < 7 < 7 7 R :.v #.-.O.r.:.. e G 4 5 o.5 4 ",
"= :.X.e R ^ , Q C % M :.% % L 2.G G C G v G T F C ' X 3 < < < q 7 W : x :.o.-.c :.  :.X.5 #.%.o.+.#.",
"o ( x C [  .o o * * 8.( L L & & x a x x a T C M $.. < e , q q q 7 > * r.G t 0.1 $ c R x $.v v v o.v ",
"< ( E  .( 7 : d.< - ' $.G G O.5 > = > ; ; ; ; ; % < < - 3 e : 3 7 7 * C :.c = ; c X.e :.4 #.o.o.o.o.",
": - w ,.,.X ,.p.p.* ' C 2.O.5 2.2.5 2.2.2.5 F ,.- - 4 3 3 3 , 3 3 3 - - * & 5 t c :.o.9 o.+.@.x x e ",
"+ * + O - O u.u.i.; $.8.T F +.+.+.5 2.5 2.2.>.>.* 4 : < e < q 3 - M * % i X.G o.@.o.o.%.t c 8.$.e < ",
"O , + * - J p.6.p.* ' L F 2.+.+.+.5 2.+.2.F 2.5 ; - 3 q : , < 3 < . * 2.G 5 #.o.y y #.:.c $.a > , : ",
"- + 2 - * p.p.p.i.C * G 2.+.+.+.2.5 2.+.5 2.5 & ; < < < q e O * % ' X.e G O.v v #.y +.9 C x - X q < ",
"- # - < O p.6.f.6.9.& >.+.5 0.5 +.F +.+.J '  .* < 3 < q . - R C X.G #.O.a 4 #.#.#.v :.e :.- - R q q ",
"O b 3 b - i.p.i.g.>.; 2.2.F +.+.5 +.2.+.2.' 7.* < 4 * - 8 ( x X.c a v v #.v 5 o.y c #.X.( O q , 6 , ",
"- J R i - 2.p.6.6.g.% 2.5 2.5 2.o.2.O.#.' ` 8.- < - < < o X.x X.t o.o.o.+.o.5 o.#.o.G x : - q + 6 7 ",
"* i C i ; 2.p.6.6.s.0.$ 2.5 2.+.o.O.o.#.L ( ' - * i 4 i > 1 x c @.#.v 5 o.o.#.v #.c  .' O q # q 6 6 ",
"= N a 4 4 ; 2.p.9.g.s.% 2.2.2.F +.+.2.2.+.+.N - * ` < c 8 = q.c o.5 v o.o.o.o.5 y #.E q.O , # 0 6 , ",
"* a a 4 b % d.7.g.6.6.g.% 2.5 2.+.+.+.5 F 2.' % x 4 R < ;.9   :.y -.o.v o.o.+.#.c #.c e 7 , 0 # 6 6 ",
"; v 4 2.4 2.% u.6.6.g.s.% F 2.F +.F O.5 2.G J * e 4 E x 9 c d = #.t #.#.o.@.o.t c a X.o 7 6 0 , 6 6 ",
"$ o.5 F 4 4 & s.g.6.6.6.9.% b 2.>.+.o.+.2.5 < 1 R 4 e 8 9 y c 8 * :.G a v v #.#.-.y q.& < 0 # 0 6 # ",
"1 y 4 a -.5 G   p.u.i.i.p.3 >.>.F O.5 2.@.X.& x x e e 1 d t 1 @.> * ( ' i G a a c a x - , 0 # 0 # 6 ",
"& 4 a v 1 a x ; p.<.i.u.6.6.X >.F 7.+.+.G #.* t 1 e t y 8 y #.> - : O e w.N i N C X.* : 7 - 0 6 6 6 ",
"= x a 5 O.4 4 = 3 p.a.a.u.i.% 3 L 2.G C O.5 1 1 d 8 t t t x c x O + , O X b J R X.' * < 6 # 0 # 6 6 ",
"= a T v v v G ; % - - a.u.6.- - J F L ' :.. e t 8 c d x c 8 e t - , - , , * - < . - < , 7 0 # 0 6 6 ",
"; 4 C c v 5 y * - , , , : , , O * ,.C 8.N X i e 1 9 t 8 t 9 c < + 2 # 2 - # 2 - , , , , 2 , # 6 0 6 ",
"* < t a o.4 a > : , 2 , , 6 3 : % 2 ' J < - > e e 5 t t y 9 t < * 2 - 2 # 2 2 2 , , 2 , 6 6 6 , 6 # "
};
